<?xml version="1.0" encoding="UTF-8"?>
<svg xmlns="http://www.w3.org/2000/svg" xmlns:xlink="http://www.w3.org/1999/xlink" version="1.1" viewBox="0 0 1000 1000">
  <defs>
    <style>
      .cls-1 {
        fill: none;
      }

      .cls-2 {
        fill: #fcf7f7;
      }

      .cls-3 {
        fill: #c464b1;
      }

      .cls-4 {
        isolation: isolate;
      }

      .cls-5 {
        clip-path: url(#clippath-1);
      }

      .cls-6 {
        clip-path: url(#clippath-3);
      }

      .cls-7 {
        clip-path: url(#clippath-4);
      }

      .cls-8 {
        clip-path: url(#clippath-2);
      }

      .cls-9 {
        clip-path: url(#clippath-5);
      }

      .cls-10 {
        fill: #f8e1e3;
      }

      .cls-11 {
        fill: #f9efef;
      }

      .cls-12 {
        mix-blend-mode: soft-light;
      }

      .cls-13 {
        fill: #6a4681;
      }

      .cls-14 {
        clip-path: url(#clippath);
      }
    </style>
    <clipPath id="clippath">
      <rect class="cls-1" x="189.85" y="207.44" width="678.68" height="619.97"/>
    </clipPath>
    <clipPath id="clippath-1">
      <rect class="cls-1" x="146.82" y="147.97" width="701.89" height="678.8"/>
    </clipPath>
    <clipPath id="clippath-2">
      <rect class="cls-1" x="257.1" y="241.93" width="570.96" height="420.88"/>
    </clipPath>
    <clipPath id="clippath-3">
      <rect class="cls-1" x="510.31" y="627.27" width="53.75" height="48.05"/>
    </clipPath>
    <clipPath id="clippath-4">
      <rect class="cls-1" x="80.67" y="127.48" width="795.75" height="485.99"/>
    </clipPath>
    <clipPath id="clippath-5">
      <rect class="cls-1" x="206.75" y="421.22" width="547.15" height="409.2"/>
    </clipPath>
  </defs>
  <!-- Generator: Adobe Illustrator 28.6.0, SVG Export Plug-In . SVG Version: 1.2.0 Build 709)  -->
  <g class="cls-4">
    <g id="Layer_1">
      <g>
        <g class="cls-12">
          <g class="cls-14">
            <path d="M649.99,782.54c-6.93,6.16-13.9,12.35-21.11,18.23.76-.35,1.52-.7,2.29-1.06,26.34-12.41,43.86-33.17,54.48-57.82-9.57,15.32-22.41,28.45-35.66,40.66ZM512.04,814.43c7.39-14.78,10.81-31.07,12.82-47.37,4.67-44.28,6.24-88.88,6.81-133.39-.02-57.05-2.95-122.58-47.2-164.27-10.2-9.5-21.44-18.68-34.62-23.61-5.36-1.77-15.23-.92-14.43-9.08,5.19-11.02,24.42-1.41,37.83,7.54,9.12-15.45,63.56,6.29,76.73,11,1.13.44,2.25.89,3.37,1.35,1.56-4.27,3.16-8.53,4.79-12.78,7.36-19.7,16.31-38.81,26.68-57.11,35.25-60.75,80.44-119.39,144.27-151.76,26.43-13.56,54.75-26.31,84.9-27.18,10.7-.08,22.22.64,31.4,6.68,5.48,4.36,22.91,14.02,13.15,21.42-4.34,1.01-7.16-.54-10.16-3.01-.12,2.38-.58,4.8-.89,6.78,0,.05-.02.09-.03.14-1.24,42.51-47.09,91.87-72.98,118.83-2.09,2.05-4.21,4.08-6.34,6.1-1.75,2.06-3.51,4.1-5.3,6.12-.95,1.18-2.29,1.95-3.73,2.23-5.42,4.91-10.92,9.75-16.46,14.53.35,2.12-.53,4.57-3.05,6.5-4.67,2.68-9.33,5.37-13.99,8.08-1.56,1.32-3.12,2.65-4.67,3.98-1.19,1-2.71,1.36-4.21,1.2-27.27,15.96-54.3,32.35-81.19,48.95-.26.16-.52.32-.77.48.39.17.77.34,1.16.51.08.04.16.07.24.11,3.12,1.37,4.53,5.17,3.14,8.26-1.04,2.31-3.35,3.67-5.74,3.67-.85,0-1.7-.17-2.52-.52-3.01-1.32-6.02-2.64-9.03-3.96-1.95,1.25-3.91,2.5-5.86,3.75-2.85,1.84-6.93.41-8.5-2.43-1.35-2.36-.88-5.3.87-7.24-1.15-.5-2.31-1.01-3.46-1.52-4.63-2.03-9.27-4.06-13.9-6.09-4.85-2.12-9.77-4.14-14.53-6.45-1.64-.8-3.09-1.75-4.41-2.93-.85,2.15-1.67,4.3-2.48,6.47-1.67,4.34-3.3,8.7-4.9,13.07,21.44,9.59,41.27,21.12,59.13,34.86,1.79-2.74,6.32-3.89,10.07-1.67,2.56,1.42,5.06,2.93,7.52,4.55,27.8,12.2,47.84,32.77,60.48,60.57,15.04,28.98,19.18,61.84,20.36,94.07.52,11.57.69,23.16.55,34.74-.04,3.41-2.87,6.23-6.29,6.21-1.99,0-3.8-1-4.95-2.51-.38.24-.78.44-1.2.6-5.23,51.88-29.18,100.13-79.84,120.67-1.76.78-3.53,1.53-5.31,2.26-5,.15-9.97,1.19-14.87,2.15-3.5.68-7,1.37-10.52,1.99-7.27,1.29-14.58,2.46-21.92,3.29-.37.04-.73.08-1.09.12,0,0-.02,0-.02,0-.02,0-.04,0-.05,0-.02,0-.03,0-.05,0,0,0,0,0-.01,0-.01,0-.03,0-.04,0-.02,0-.03,0-.05,0h0s0,0,0,0c-.03,0-.06,0-.09.01-.8.09-1.49.15-2.16.23-.54.06-1.08.12-1.61.18-.36.02-.71.04-1.05.07-.83.05-1.65.15-2.46.3-1.5.14-3,.29-4.51.43-4.62.09-9.24.24-13.86.4-10.88.37-21.77.76-32.64,1.36-4.22.23-8.44.48-12.65.76,2.18-4.22,4.28-8.48,6.36-12.74Z"/>
            <path d="M569.25,824.24h0c-.09.01-.18.02-.26.03.09-.01.18-.02.26-.03Z"/>
            <path d="M576.71,823.43s-.07,0-.1.01c.03,0,.07-.01.1-.01Z"/>
            <path d="M576.82,823.42s0,0,0,0c0,0,0,0,0,0Z"/>
            <path d="M576.91,823.41s-.02,0-.03,0c.02,0,.03,0,.05,0,0,0,.02,0,.02,0,.1-.01.2-.02.3-.03-.12.01-.23.03-.35.04-.02,0-.04,0-.06,0,.02,0,.04,0,.06,0Z"/>
            <path d="M577.58,823.34c.11-.01.22-.02.32-.03-.14.01-.28.03-.41.04.03,0,.06,0,.09-.01Z"/>
            <path d="M402.3,384.22c1.25,15.83,2.04,35.89-10.99,47.23-12.88,9.92-27.27,17.62-41.17,25.98-9.09,4.7-19.42,13.16-30.06,16.7,1.28,2.32,2.3,4.71,1.79,7.33-1.22,5.24-9.08,6.27-11.5,1.39-1.25-2.52-2.52-5.02-3.82-7.51h0c-7.99-3.07-10.84-12.42-15.29-19.04-8.98-16.02-18.27-31.9-28.62-47.02-2.64,2.73-5.3,5.41-7.99,8.07-12.41,12.43-24.87,24.82-37.27,37.27-2.4,2.41-6.51,2.25-8.84-.16-2.4-2.49-2.24-6.43.16-8.84,6.82-6.85,13.64-13.7,20.46-20.54,7.11-7.12,14.32-14.14,21.34-21.34,39.91-37.86,62.89-86.65,52.93-142.29-.48-4.95-3.73-9.81-2.23-14.77,1.6-4.5,5.49-4.63,8.49-2.65.85-.95,2.03-1.59,3.46-1.63,5.31.55,6.41,5.34,4.84,8.49.58,1.27,1.01,2.67,1.36,4.03,6.33-4.48,13.25,5.78,18.33,9.16,7.79,6.7,15.04,14.02,21.69,21.85,22.99,27.81,39.15,62.21,42.93,98.28Z"/>
            <path d="M201.05,455.52c-1.96-2.66-1.5-6.82,1.31-8.74,5.88-4.01,11.69-8.13,17.38-12.41,5.72-4.3,11.24-8.83,16.71-13.45,18.2-15.58,35.06-33.41,45.87-54.99,16.08-31.39,23.88-64.68,20.41-99.94.06-5.64-1.83-11.27-1.3-16.85,2.17-8.98,12.25-5.02,12.43,2.79,2.24,18.27,2.74,36.96.78,55.29-6.64,42.27-26.23,83.2-57.98,112.3-14.51,13.78-30.37,26.04-46.88,37.31-2.79,1.9-6.65,1.52-8.75-1.31Z"/>
            <path d="M194.05,460.84c-3.95-5.33,2.28-9.71,5.79-12.41,23.88-20.78,45.73-44.15,65.59-68.71,19.05-24.77,35.25-51.64,53.89-76.7,4.36-4.64,11.99-2.53,10.8,4.58-1.34,5.11-5.59,8.89-8.3,13.32-3.55,5-6.98,9.9-10.15,14.5-17.96,26.47-35.41,53.46-57.52,76.74-16.17,17.58-32.67,35.02-51.35,49.99-2.65,2.12-6.77,1.35-8.74-1.31Z"/>
            <path d="M749.65,679.31c-1.18,5.2-2.57,10.33-3.96,15.48-2.67,8.55-5.44,17.04-8.67,25.4-3.39,8.75-7.07,17.34-10.91,25.9-4.33,9.08-8.75,18.1-13.54,26.95-2.75,1.49-5.49,2.98-8.23,4.48.24-.13.48-.26.71-.39-.27.15-.55.3-.82.45-.08.04-.16.09-.25.13-.2.11-.39.21-.59.32-.01,0-.02.01-.03.02-.5.25-1.01.52-1.5.81-.58.27-1.14.58-1.68.92-.29.16-.57.32-.86.48-9.23,5.06-18.43,10.19-27.58,15.4-4.88,2.78-9.76,5.56-14.63,8.36-5,2.88-10.09,5.7-14.88,8.92-2.15,1.44,55.84-42.16-5.3,5.36-21.48-37.03-4.55-2.08-7.14-2.32-.65-.06-1.31-.1-1.96-.13-12.8-13.29-17.17-34.77-6.7-51.47,4.48-8.06,12.39-12.89,18.34-19.7,8.76-10.35,17.02-21.23,23.46-33.18,9.64-24.55,11.84-51.77,11.2-77.95-.71-9.62-2.54-17.33-1.2-26.59,2.98-17.84,11.93-35.11,29.94-40.12"/>
            <path d="M703.34,778.07c-.08.05-.17.09-.25.14.08-.05.17-.09.25-.14Z"/>
            <path d="M703.41,778.04s.01,0,.02,0c0,0-.01,0-.02.01h0Z"/>
            <path d="M703.73,777.86c-.08.05-.16.09-.24.14-.02,0-.04.02-.06.03.1-.06.2-.11.31-.17Z"/>
            <path d="M704,777.71s.08-.04.12-.06c-.13.07-.25.14-.38.21.09-.05.18-.1.26-.15Z"/>
          </g>
        </g>
        <g>
          <path class="cls-13" d="M316.55,257.12s2.99,1.13,5.54,2.4-1.81-4.98-1.81-4.98l-3.73,2.57Z"/>
          <g class="cls-5">
            <path class="cls-2" d="M595.06,349.14c-4.57,10.86-8.66,21.91-12.3,33.09-1.74,2.36-3.48,4.71-5.22,7.06,5.38-13.57,11.36-26.92,17.52-40.16Z"/>
            <path class="cls-2" d="M691.89,213.49c-3.64,3.47-7.2,7.01-10.71,10.57-10.05,9.93-19.79,20.22-28.93,31.02,12.05-14.88,25.25-28.82,39.64-41.59Z"/>
            <path class="cls-2" d="M767.23,157.74c8.5-9.52,20.62-5.98,25.98,1.99-8.57.2-18.11,2.3-28.54,6.73-2.3.73-4.57,1.51-6.81,2.36,3.11-3.7,6.23-7.39,9.36-11.07Z"/>
            <path class="cls-11" d="M501.54,825.62c-9.35-.42-12.19-2.55-24.34-2.93-7.36-.23-14.71-.43-22.07-.74-21.55-.9-43.11-1.87-64.67-2.65-7.19-.26-14.41-.59-21.64-.8-16.84-8.71-32.92-19.66-47.23-31.93-9.16-4.86-17.93-10.36-26.05-16.71,4.17,8.88,8.54,17.63,12.77,26.24,1.76,3.41,3.56,6.81,5.43,10.16-2.67-1.36-5.35-2.68-8.06-3.95-.62-.29-1.24-.57-1.86-.86-2.62-1.53-5.36-2.89-8.3-3.43-2.44-1.92-4.86-3.85-7.28-5.79-9.71-8.04-19.41-16.09-29.06-24.21-7.16-16.43-13.29-33.26-16.66-50.92-8.9-58.85,14.35-132.94,48.01-183.53-1.36-8.27,4.55-18.86,12.73-22.98,9.62-7.51,19.42-14.82,29.51-21.69,9.38-7.51,19.31-14.33,29.68-20.41-1.58-4.33-1.73-9.61-1.55-14.95-1.76.25-3.58.19-5.4-.24-4.45,5.58-10.14,9.98-16.49,13.1,1.33,10.14-8.25,20.91-19.25,18.36-6.13-1.18-11.28-7.14-15.77-13.93-5.79-1.48-13.82-4.27-22.23-9.8-13.14-8.64-20.39-19.5-23.88-25.69-6.57,12.72-14.58,17.66-19.01,19.75-27.66,12.99-72.03-12.37-79.65-44.14-1.34-5.6-1.7-11.25-1.33-16.86-3.17-6.41-5.07-13.83-5.34-22.26,0-15.07,5.9-28.48,14.15-40.7,5.83-15.26,14.81-30.13,26.87-43.21,19.82-21.57,43.82-41.92,72.98-48.67,17.69-3.67,36.26-.6,51.79,8.05,8.66-1.66,17.86,2.66,19.75,12.43,9.87,3.5,15.87,14.39,14.12,22.75.56.86,1.12,1.73,1.66,2.59,5.28,4.37,10.21,9.13,14.71,14.2,4.59,7.36,4.73,13.93,2.3,18.69,11.97,28.65,18.42,59.76,20.64,90.61.73,9.06,1.2,18.12,1.54,27.21-.15,5.05.48,11.18.63,17.2,5.53-2.28,11.14-4.36,16.81-6.22,12.46-3.21,35.46-11.54,48.31-5.42,24.42-1.36,48.75,1.84,74.28,8.57,11.73-16.16,23.54-32.27,35.38-48.36,3.02-4.1,6.04-8.2,9.07-12.29,1.73-2.36,3.48-4.71,5.22-7.06,3.64-11.18,7.73-22.23,12.3-33.09,4.87-11.58,10.27-22.93,16.24-33.98.3-3.05,1.38-5.95,3.3-8.21,2.05-2.84,4.14-5.66,6.27-8.45,4.95-8.11,10.23-16.02,15.85-23.68,4.93-6.78,10.12-13.34,15.54-19.73,9.14-10.79,18.88-21.08,28.93-31.02,3.51-3.57,7.08-7.1,10.71-10.57,19.4-18.52,40.77-35.19,65.98-44.67,2.24-.84,4.51-1.63,6.81-2.36,10.43-4.43,19.96-6.53,28.54-6.73,4.36-.1,8.46.29,12.31,1.12,2.84-.75,5.73-1.35,8.66-1.79,14.7-3.36,29.29,11.95,21.27,23.4,5.9,9.52,9.23,21.32,9.75,33.98,3.26,18.05,1.48,38.96-6.29,59.07-14.45,42.97-47.23,76.04-77.54,108.47-30.96,32.27-35.57,37.23-100.66,65.51-35.55,15.44-8.3,44.1-15.5,51.33-.05,1.22-.25,2.42-.58,3.59,5.12,5.18,9.57,10.03,12.91,13.35,41.32,53.44,70.88,127.71,44.86,194.05-9.67,24.38-25.71,48.77-45.39,69.71,9.45,7.7,8.33,26.08-7.53,28.92-10.32,1.36-20.65,2.77-31,4.13-3.03,2.05-6.1,4-9.2,5.86-2.34.33-4.68.66-7.03.98-2.03-1.12-4.3-1.86-6.72-2.09-11.84-1.11-23.84-.14-35.66.84-2.67.22-12.99,1.46-33.67,3.67-16.4,1.76-19.54,2.01-24.67,1.78Z"/>
            <path class="cls-11" d="M152.76,425.33c-5.68-12.8-2.92-27.65,1.05-40.56,5.77-34.24,23.79-65.41,45.49-92.05,10.86-13.47,23.47-41.57,44.1-37.56,26.61-14.64,59.78-13.86,86.73-.51,18.7,10.02,14.2,34.42-8.71,30.93-14.19-5.1-28.78-11.01-44.24-8.09-19.98,3.34-36.93,16.51-46.33,34.23-16.25,25.32-21,55.67-29.82,84-2.4,8.7-4.73,17.41-6.99,26.15-2.24,8.3-31.56-3.68-20.06,10.8,11.5,14.48-17.41.23-21.22-7.32Z"/>
            <path class="cls-11" d="M241.79,697.74c-4.05-.47-6.99-4.4-6.46-8.41.79-9.93,2.43-19.79,4.11-29.59,1.77-10.37,3.69-20.71,5.78-31.02,7.74-38.59,29.74-109.99,62.11-133.39,11.89-2.46,11.02,10.45,3.69,15.95-28.77,34-41.83,78.37-51.28,121.14-1.94,9.89-3.82,19.79-5.52,29.73-1.64,9.66-3.25,19.37-4.03,29.14-.33,4.08-4.51,6.97-8.41,6.46Z"/>
            <path class="cls-11" d="M232.09,712.96c2.5-54.42,1.52-111.78,28.2-160.98,6.89-12.96,28.23-50.78,41.66-54.44,5.45-.91,10.04,3.66,7.75,9.11-1.31,3.84-5.02,5.92-7.52,8.93-2.4,2.8-4.78,5.61-6.95,8.59-19.91,26.72-34.78,57.55-40.89,90.42-4.68,32.54-6.11,65.54-7.26,98.37-.11,9.69-14.93,9.86-15-.01Z"/>
            <path class="cls-11" d="M648.14,795.93c-.03-.11-.06-.22-.08-.33-9.85,9.52-21.32-1.56-12.65-9.72,2.32-1.45,4.63-2.89,6.6-4.81-1.42-3.12-.61-7.13,2.3-9.18,7.2-5.06,14.38-10.14,21.57-15.22,12.49-12.59,23.12-26.98,33.73-41.18.4-1.67.79-3.35,1.18-5.04,9.32-48.12,6.14-109.99-16.81-153.93-2.17-4.6-6.78-8.55-5.93-14.05.6-6.68,9.15-7.14,12.93-2.72,8.79,11.91,14.41,25.95,18.77,40.02,9.92,35.1,13.04,72.27,9.54,108.56,3.48-4.52,7.64-11.86,14.42-10.13,3.4.86,5.78,3.9,6.13,7.34.28,3.37-.87,6.74-1.87,9.92-5.61,15.8-13.54,30.69-21.52,45.4-9.34,16.19-21.83,30.55-36.42,42.23-6.84,7.38-23.81,29.08-31.9,12.83Z"/>
            <path class="cls-11" d="M595.54,819.33c-.77-.07-1.54-.14-2.31-.19-.64-3.01.42-6.42,3.47-8.26,21.03-18.07,41.27-37.05,61.29-56.23,15.18-14.81,28.66-31.55,39.76-49.55,4.77-6.36,6.2-15.58,13.19-18.8,7.53-2.96,11.26,7.09,7.48,12.53-11.42,22.29-26.75,42.45-43.99,60.55-11.24,11.5-23.18,22.31-34.93,33.29-5.41,4.07-20.54,19.98-30.95,27.87-2.1.3-4.2.59-6.31.88-2.03-1.12-4.3-1.86-6.72-2.08Z"/>
            <path class="cls-11" d="M657.39,773.83c-3.15-4.22-.36-9.33,3.39-12.06,1.34-8.4,14.02-14.64,19.9-20.53,12.42-10.28,24.76-20.69,36.52-31.73,4.95-5.9,16.42-3.76,13.9,5.29-1.22,4.64-5.66,7.23-8.84,10.48-9.95,9.03-20.21,17.71-30.55,26.29,5.88,8.75-5.77,14.44-11.9,18.36-4.67,5.8-9.34,11.59-14,17.39-6.4,7.95-12.8,15.9-19.19,23.86-.99,1.23-1.99,2.47-2.98,3.7-7.4,1.38-14.83,2.66-22.28,3.8,11.98-14.98,24.01-29.91,36.04-44.85Z"/>
            <path class="cls-11" d="M615.19,808.92c13.96-15.85,27.36-32.2,40.76-48.52,13.47-16.29,26.18-33.18,38.2-50.56,4.39-6.32,8.75-12.66,12.96-19.1,1.51-2.31,2.87-4.85,5.38-6.23,4.11-2.67,10.21-.95,10.65,4.37,1.35,7.07-11.41,20.53-15.2,27.36-12.32,17.74-25.09,35.19-38.88,51.83-13.72,16.68-27.42,33.39-41.65,49.64-3.66.6-7.33,1.17-11,1.7-3.04-2.43-3.9-7.44-1.22-10.49Z"/>
            <path class="cls-11" d="M624.41,815.28c-5.64-5.99,1.07-11.7,5.13-16.11,6.77-7.57,13.42-15.25,20.05-22.95,14.54-16.85,28.25-34.64,38.14-54.67,3.06-5.01,4-11.8,9.11-15.2,4.54-3.05,10.02-.15,10.45,5.25.58,4.92-2.86,9.16-4.63,13.52-11.55,24.64-28.67,46.02-46.47,66.41-6.96,8.04-13.96,16.06-21.16,23.89-.49.53-1.05.96-1.67,1.29-1.49.26-2.97.51-4.46.75-1.68-.22-3.3-.98-4.48-2.18Z"/>
            <path class="cls-11" d="M624.57,810.79c-2.93-3-2.69-7.66.14-10.61,11.65-12.15,23.25-24.36,34.77-36.64-1.06-7.57,14.1-19.84,19.06-26.09,2.66-2.85,5.32-5.69,8-8.52,1.93-2.04,3.84-4.27,6.74-4.91,5.72-1.68,10.29,2.87,8.59,8.63-.56,2.26-1.96,4.1-3.61,5.7-3.43,3.63-6.85,7.28-10.26,10.93.17.62.27,1.25.28,1.89,5.46,5.64-.32,11.86-4.98,15.64-3.48,2.99-7.33,6.69-12.27,6.31-9.16,9.75-18.35,19.47-27.58,29.15-5.09,4.75-11.25,15.57-18.88,8.51Z"/>
            <path class="cls-11" d="M664.94,803.95c-3.49-2.04-4.8-6.76-2.68-10.26,5.47-9.05,10.86-18.16,16.23-27.27,8.83-14.9,17.93-29.75,24.62-45.77,4.53-10.89,8.34-22.09,10.7-33.66,1.14-4.63.7-10.1,4.41-13.63,2.07-2.02,5.01-2.83,7.65-1.45,6.67,4.06,3.53,12.59,2.48,18.76-1.16,5.43-2.55,10.75-4.18,16.05-6.23,20.84-16.61,40.07-27.69,58.68-5.24,8.93-10.49,17.85-15.8,26.74-3.57,5.57-7.36,16.34-15.75,11.81Z"/>
            <path class="cls-11" d="M670.07,792.27c-3.72-1.55-5.68-6.05-4.05-9.8,8.76-20.12,17.23-40.38,25.64-60.65,2.32-5.58,4.58-11.16,6.72-16.81,2.68-7.03,3.86-14.58,6.5-21.59,2.86-5.38,10.44-6.84,13-.32,3.37,8.31-9.15,36.16-12.71,45.32-8.31,19.98-16.65,39.96-25.29,59.8-1.63,3.78-6.08,5.63-9.8,4.05Z"/>
            <path class="cls-11" d="M608.08,782.65c-16.37-12.44-21.34-37.38-10.42-54.9,11.06-14.43,20.61-29.22,29.07-45.25,8.86-19.33,11.25-36.26,30.89-48.42,27.64-18.66,55.25,3.96,59.01,32.57-.14.59-.28,1.17-.42,1.75-2.48,10.08-5.19,20.07-8.14,30.03-2.04,6.41-4.15,12.79-6.41,19.13-1.16,3.28-2.46,6.51-3.83,9.71-9.82,10.58-19.68,21.11-29.76,31.45-3.69,3.79-7.39,7.56-11.09,11.34-3.5,2.29-7.05,4.49-10.67,6.64-3.69,2-7.39,4.01-11.21,5.73-3.96,1.79-7.94,3.5-11.96,5.15-1.32.49-2.64.97-3.96,1.44-3.87-1.47-7.6-3.58-11.11-6.37Z"/>
            <path class="cls-11" d="M606.95,765.46c12.45-22.02,24.58-44.21,36.65-66.43,16.37-37.34,60.28-48.71,77.82-20.33-2.4,9.68-5.01,19.29-7.84,28.86-2.04,6.41-4.15,12.79-6.41,19.13-1.17,3.28-2.47,6.52-3.84,9.71-9.82,10.58-19.68,21.11-29.75,31.45-3.68,3.78-7.38,7.55-11.08,11.33-3.5,2.29-7.06,4.5-10.68,6.64-3.69,2-7.39,4.02-11.21,5.73-3.97,1.78-7.95,3.5-11.96,5.15-2.31.85-4.63,1.69-6.95,2.5-1.19.24-2.39.47-3.58.7-4.63.89-9.28,1.73-13.93,2.53-4.57-11.87-4.02-25.73,2.78-36.98Z"/>
            <path class="cls-11" d="M624.92,800.95c-18.14-10.62-25.77-33.57-17.78-52.98,6.03-13.88,18.73-23.52,26.83-36.1,8.78-13.8,14.98-26.91,30.35-34.88,13.35-14.75,24.39-35.32,46.22-37.57,10.91-1.61,21.8,1.62,30.43,7.95-.25,1.88-.51,3.76-.78,5.64-1.68,10.11-3.49,20.22-5.93,30.18-2.48,10.08-5.19,20.07-8.14,30.03-2.04,6.41-21.47-7.75-23.73-1.41-1.17,3.28,14.85,27.05,13.49,30.25-9.82,10.58-19.69,21.11-29.76,31.45-3.69,3.79-7.39,7.56-11.08,11.34-3.5,2.29-7.06,4.49-10.68,6.64-3.69,2-7.39,4.02-11.21,5.73-3.97,1.78-7.95,3.5-11.96,5.15-2.3.85-4.6,1.68-6.91,2.49-.13.03-.27.05-.4.08-3.1-.95-6.11-2.27-8.96-3.99Z"/>
            <path class="cls-11" d="M591.36,738.65c5.73-5.16,11.02-10.79,16.2-16.5,10-11.34,19.7-22.94,28.97-34.88,6.29-8.79,13.51-17.45,23.28-22.46,14.3-7.79,32.96-10.66,46.53-.11,6.07,5.05,10.07,11.65,12.27,18.88-1.59,5.97-3.26,11.92-5.02,17.85-2.04,6.41-4.15,12.79-6.41,19.13-1.17,3.28-2.47,6.52-3.84,9.71-9.81,10.58-19.68,21.12-29.75,31.45-3.69,3.79-7.39,7.57-11.09,11.34-3.5,2.29-7.05,4.49-10.67,6.63-3.69,2-7.39,4.02-11.21,5.73-3.97,1.79-7.95,3.5-11.96,5.15-2.31.85-4.62,1.69-6.94,2.5-1.2.24-2.4.47-3.6.7-9.22,1.77-18.48,3.37-27.76,4.77-15.88-15.93-15.8-44.65,1-59.92Z"/>
            <polygon class="cls-11" points="678.36 540.92 658.74 536.87 691.3 592.39 696.41 563.16 678.36 540.92"/>
          </g>
          <g class="cls-8">
            <path class="cls-10" d="M604.45,437.27c1.69-5.47,3.39-10.93,5.11-16.39,20.63-70.22,66.5-159.96,144.92-175.5,20.16-3.21,43.93-.49,58.6,15.03,9.78,10.04,14.72,24.54,12.89,38.46-.28,2.29-1.23,4.59-3.14,6-2.89,2.52-6.38,1.16-8.14-1.55-31.42,58.83-89.34,99.37-143.23,136.69-17.76,12.05-35.53,24.09-53.49,35.85-2.83,1.86-6.89.6-8.55-2.24-1.76-2.91-.67-6.84,2.24-8.55,2.14-1.4,4.29-2.81,6.43-4.23-1.89-2.17-10,7.47-12.11,14.36-.73,2.48-1.39,5.73-2.77,8.11,1.17.55,2.33,1.11,3.49,1.67,2.38,1.16,4.77,2.32,7.14,3.52.89.45,1.64,1.04,2.24,1.73,4.65-1.75,9.55-2.82,14.66-3,11.34,1.22,9.73,13.3-1.75,12.59-14.55,1.86-25.81,12.21-34.96,22.94-20.19,24.87-29.36,56.45-36.38,87.18-2.17,9.51-4.25,19.04-6.26,28.58-1.29,5.45-1.21,14.39-9.2,12.95,1.59,6.14-7.36,11.08-11.43,4.71-18.8-28.38-35.6-58.44-58.57-83.75-7.73-8.46-15.82-16.85-24.41-24.63-23.68-17.78-52.03-29.46-81.76-30.86-34.82-1.94-67.56,13.93-94.55,34.61-6.52,4.87-14.13-4.62-7.73-9.82,7.18-5.15,14.25-10,21.59-14.8,2.78-1.77,5.59-3.42,8.41-4.96-3.16-.77-5.55-3.39-3.99-7.31,3.06-7.21,19.25-10.51,26.4-12.93.02,0,.05-.01.07-.02,5.82-3.36,11.66-6.68,17.53-9.93-6.39,2.93-12.73,5.96-19.03,9.05-2.57,1.19-5.19,3.32-8.18,2.48-1.9-.4-3.27-1.7-4.02-3.31-.39-.84-.61-1.76-.64-2.69-.08-2.15.85-4.3,2.98-5.43,8.73-4.64,17.73-8.77,26.74-12.83,6.35-3.05,12.8-5.93,19.34-8.61.25-7.11.46-14.22.45-21.34-10.98,6.6-21.2,14.5-30.87,22.89-2.34,2.41-5.71,3.81-9.08,3.12-10.04-2.07-20.08-19.25-24.36-28.11-4.07-12.82,4.5-25.07,11.81-34.91,11.43-15.36,23.04-30.59,34.44-45.97.19-.24.39-.46.6-.67-.29-.64-.59-1.28-.88-1.92-.95-5.41,4.26-9.16,8.97-6,10.23,9.02,17.22,44.79,19.6,58.89,2.54,16.23,2.59,32.69,2,49.09,67.79-24.82,143.6-29.21,212.31-5.8,6.17,2.72,20.98,4.99,16.55,14.49-1.18,1.46-2.62,2.16-4.16,2.38,1.25.54,2.49,1.07,3.73,1.62,3.35-11.35,6.77-22.68,10.24-33.99"/>
            <path class="cls-10" d="M265.1,457.3c-6.78-5.57-7.56-16.32-1.84-22.91,5.36-6.62,10.75-13.24,16.13-19.85,6-6.63,10.55-15.73,19.59-18.57,5.39-1.8,12.32-1.56,16.3,3.01,10.37,13.56-2.65,26.4-11.14,36.64-5.39,6.61-10.77,13.22-16.13,19.85-5.57,6.89-16.3,7.47-22.91,1.84Z"/>
            <polygon class="cls-10" points="260.71 542.43 307.01 485.54 354.22 483.32 264.5 546.49 260.71 542.43"/>
          </g>
          <g class="cls-6">
            <path class="cls-3" d="M534.28,671.13c-4.78-2.68-8.47-7.19-11.21-11.86-5.29-6.99-12.51-18.36-4.09-25.7,6.67-6.05,16.56-3.92,24.76-3.54,8.02.32,15.67,2.24,17.8,11.05,2.27,9.69-5.16,18.14-10.42,25.48-3.8,6.05-10.51,8.51-16.84,4.57Z"/>
          </g>
          <g class="cls-7">
            <path class="cls-13" d="M639.11,509.42c.4-.2.81-.4,1.21-.61-.23.34-.46.68-.67,1.03-.18-.14-.36-.28-.54-.42Z"/>
            <path class="cls-13" d="M547.15,462.58c-.23-6.4-.55-12.8-.96-19.19-.3-4.79-.64-9.59-.85-14.39,10.58,3.14,21.07,6.6,31.45,10.14-.35,1-.7,2-1.02,3-3.01,9.09-5.65,18.29-8.24,27.5-6.71-2.57-13.51-4.92-20.37-7.06Z"/>
            <path class="cls-13" d="M299.61,493.65c-3.79-2.17-7.6-4.3-11.38-6.47,7.57-7.36,15.68-14.18,24.21-20.43.76,1.25,1.52,2.5,2.29,3.75,1.38,2.24,2.78,4.46,4.22,6.66.26,2.58.51,5.17.75,7.76-.02-.25-.04-.51-.06-.77.03.29.05.58.07.88-5.39,3.56-10.75,7.2-15.98,11.02-1.37-.8-2.74-1.6-4.11-2.39Z"/>
            <path class="cls-13" d="M351.41,443.37c.15-.07.3-.15.45-.22-.05.17-.09.35-.14.52-.1-.11-.21-.21-.32-.3Z"/>
            <path class="cls-13" d="M378.19,441.13c.13-.62.25-1.24.36-1.86,0,0,0,0,0,0,1.04-2.42,1.9-4.91,2.65-7.43.08-.28.16-.56.24-.84,10.52-3.62,21.26-6.6,32.1-8.94-.3.64-.59,1.28-.89,1.92-4.55,9.81-9.15,19.62-13.92,29.34-5.25.68-10.43,1.64-15.59,2.88-3.31.8-6.59,1.7-9.83,2.7,1.95-5.83,3.63-11.73,4.88-17.77Z"/>
            <path class="cls-13" d="M642.77,483.48c-13.79-1.24-19.18-20.63-7.75-28.62,16.55-11.43,33.2-22.71,49.68-34.24,32.11-21.07,60.81-46.59,86.56-75.04,30.27-34.58,63.14-73.18,68.37-120.53,2.15-30.21-22.23-66.92-55.81-56.81-82.62,15.99-171.65,133.63-197.64,210.28-4.3,13.2-7.54,26.76-8.43,40.66-.58,4.93-.09,11.05.07,17.14-.72,1.93-1.4,3.86-2.05,5.81-2,6.06-3.84,12.17-5.62,18.3-1.93,1.23-4.34,2.11-7.32,2.55-9.8-.3-14.58-7.96-16.56-18.35-.03-.42-.05-.83-.08-1.25-.33-5.2-.7-10.41-.91-15.62-.03-.77-.06-1.55-.09-2.32.53-13.64,3.08-27.47,4.4-34.64,24.95-95.93,102.54-195.39,190.14-242.01,26.71-11.37,59.37-21.07,86.76-6.83,32.75,17.33,49.67,57.7,44.18,93.64-14.77,86.47-111.59,175.68-182.72,221.66-11.22,6.08-32.27,26.28-44,26.28-.4,0-.8-.03-1.18-.07Z"/>
            <path class="cls-13" d="M646.22,448.01c18.97-4.59,28.28,13.52,14.56,26.93-3.13,2.94-7.21,4.97-10.94,7.07-7.34,3.38-16.33,10.64-24.73,10.64-1.18,0-2.34-.14-3.49-.46-8.33-2.01-12.57-10.03-11.78-17.49,1.88-2.15,3.77-4.3,5.65-6.44"/>
            <path class="cls-13" d="M295.19,491.14c-2.28-1.29-4.56-2.57-6.83-3.88-11.81-9.15-20.67-21.61-27.44-34.82-2.79-4.72-4.67-10.01-4.02-15.55,1.12-13.39,14.01-18.32,24.39-10.16,7.06,5.43,9.11,14.84,14.32,21.8,3.84,5.52,8.45,10.55,13.86,14.55.63.51,1.2,1.04,1.72,1.58,1.17,1.95,2.34,3.89,3.53,5.82.1.16.19.31.29.47,3.12,9.91-5.05,20.87-15.35,20.87-1.46,0-2.96-.22-4.48-.7Z"/>
            <path class="cls-13" d="M391.42,451.35c-7.17-2.23-11.66-9.21-11.21-16.41.35-1.03.68-2.06.99-3.1.72-2.43,1.3-4.91,1.59-7.43.06-.53.13-1.08.19-1.63.44-2.17.83-4.36,1.18-6.54.42-1.93.76-3.89,1-5.85.18-1.4.34-2.86.33-4.32.43-4.98.58-9.95.49-14.94-.27-6.34-.88-12.63-1.79-18.92-1.26-7.45-2.96-14.77-5.01-22.04-2.69-8.74-5.95-17.25-9.54-25.65-4.4-9.77-9.23-19.26-14.64-28.5-3.55-5.72-7.29-11.25-11.36-16.62-2.85-3.45-5.81-6.75-8.97-9.92-2.33-2.09-4.7-4.08-7.16-6.01-2.26-1.6-4.56-3.12-6.93-4.57-.61-.33-1.21-.66-1.79-1.03-1.51-.95-2.86-2.21-2.77-2.21-1.32-1.29-2.37-2.39-3.46-3.93-.99-1.39-1.63-2.82-2.3-4.37-1.42-3.28-1.7-7.58-.09-10.82,2.54-5.12,8.14-8.11,13.75-8.39,3.53-.18,7.04.29,10.27,1.82,1.91.91,3.72,2.03,5.53,3.13,4.82,2.93,9.5,6.43,13.7,10.21,4.36,3.94,8.61,8.07,12.34,12.63,3.91,4.79,7.58,9.69,11.06,14.8,6.23,9.14,11.54,18.93,16.46,28.82,5,10.04,9.38,20.45,13.14,31.01,7.49,21.02,11.87,43.61,11.59,65.96-.07,6.18-2.01,20-2.29,20.78-1.02,2.23-2.05,4.46-3.08,6.68-4.29,9.25-8.62,18.5-13.1,27.68-1.15.26-2.33.39-3.52.39-1.54,0-3.09-.22-4.61-.7Z"/>
            <path class="cls-13" d="M160.04,465.8c-79.12-42.52-21.62-161.03,26.59-207.23,23.26-23.37,55.38-37.86,88.35-39.34,17.27-.25,34.45,3.08,51.14,7.22,1.58.68,3.15,1.35,4.73,2.03,1.89.81,3.78,1.62,5.68,2.42,6.16,4.48,10.24,11.67,7.1,19.19-5.75,11.11-19.69,9.82-29.7,6.23-12.93-2.91-26.11-5.26-39.41-5.11-34.43,2.14-63.05,22.79-82.93,49.98-15.29,21.39-28.36,44.95-35.45,70.38-3.45,16.95-5.5,35.96,2.87,51.8,15.08,24.52,49.12,20.64,70.56,7.14,38.24-21.85,59.66-61.48,87.11-94.33,13.92-15.65,37.66,4.25,24.37,20.75-19.71,23.52-36.09,49.82-57.48,71.9-12.23,12.62-19.57,17.67-28.93,23.69-1.78,1.15-33.47,21.17-61.44,21.01-10.11-.06-19.97-.63-33.17-7.72Z"/>
            <path class="cls-13" d="M353.77,612.52c-10.09-.31-18.91-9.77-18.04-19.92.6-6.27,1.48-12.34,3.36-18.36,2.96-12.56,17.94-23.85,30.3-16.41,9.39,6.55,9.15,19.96,5.41,29.6-.52,2.32-.91,4.68-1.11,7.05-.5,10.2-9.63,18.75-19.92,18.04Z"/>
            <path class="cls-13" d="M605.41,594c-5.22-4.15-6.36-10.83-7.2-16.92-3.43-10.75-2.08-25.61,9.64-30.53,10.75-3.66,22.21,5.06,25.63,15.03,1.85,5.28,2.44,10.97,3.31,16.48.7,4.91-1.39,10.36-4.58,14.03-6.54,7.83-19.22,8.74-26.81,1.9Z"/>
            <polygon class="cls-13" points="412.79 418.37 384.97 435.75 412.18 438.22 416.09 414.74 412.79 418.37"/>
            <path class="cls-13" d="M631.73,455.59c-12.29,5.49-13.66,5.27-13.66,5.27l5.16,9.38,21.58-10.25,16.22-22.83s-17,12.95-29.29,18.44Z"/>
            <path class="cls-13" d="M301.38,252.36s27.2,8.89,40.41,20.53c13.21,11.64-17.26-29.69-17.26-29.69l-23.8,9.15"/>
          </g>
          <g class="cls-9">
            <path class="cls-13" d="M278.15,740.34c26.7,33.51,73.44,56.21,81.62,59.6,21.77,9.02-51.64-13.28-59.91-14.15-7.72-.8-15.45-1.62-23.17-2.43-3.33-3.24-6.6-6.55-9.8-9.93-7.01-7.38-13.92-14.86-20.75-22.4-10.08-14.28-18.46-29.76-25.01-45.95-8.91-22-13.62-45.7-13.96-69.42-.17-11.98.86-24.04,3.11-35.82,2.14-11.21,5.15-22.38,9.4-32.99,4.28-10.66,9.26-21,15.31-30.77,6.22-10.05,13.18-19.66,21.06-28.49,7.61-8.53,15.83-16.4,24.54-23.81,8.78-7.47,18.34-14.07,28.11-20.17,9.71-6.06,19.95-11.27,30.34-16.02,10.18-4.66,20.77-8.61,31.46-11.91,21.98-6.78,44.5-10.99,67.4-13,10.32-.9,20.73-1.22,31.1-1.03,11.25.21,22.5.79,33.68,2.14,23.09,2.79,45.95,7.61,68,15.09,21.54,7.3,42.67,16.55,62.09,28.46,9.89,6.07,19.67,12.39,28.77,19.61,9.27,7.35,18.12,15.06,26.5,23.41,16.18,16.11,29.98,34.65,40.85,54.71,5.71,10.55,10.71,21.64,14.39,33.08,1.85,5.76,3.53,11.54,4.92,17.42,1.32,5.58,2.35,11.19,3.23,16.86,1.86,12.02,2.23,24.32,1.62,36.45-.55,11.03-2.09,22.11-4.75,32.84-5.64,22.76-15.23,44.47-28.65,63.75-2.03,2.92-9.81,11.83-11.61,13.42-8.83,7.5-18.07,14.47-27.61,21.03-15.13.57-30.27,1.11-45.41,1.7,4.2-2.59,8.34-5.3,12.39-8.14,7.04-5.15,13.75-10.64,20.21-16.5,5.54-5.29,10.79-10.81,15.78-16.62,5.12-6.3,9.87-12.83,14.25-19.67,3.46-5.79,6.65-11.66,9.57-17.74,2.95-6.66,5.54-13.42,7.73-20.37,1.82-6.39,3.3-12.82,4.46-19.36.93-6.4,1.52-12.8,1.85-19.27.11-7.41-.2-14.75-.89-22.12-.9-6.94-2.12-13.78-3.69-20.59-1.88-7.07-4.06-13.98-6.61-20.83-2.75-6.72-5.74-13.28-9.09-19.72-4.24-7.7-8.88-15.11-13.95-22.29-5.18-7.03-10.73-13.73-16.6-20.19-6.68-7.02-13.7-13.64-21.06-19.97-9.02-7.36-18.39-14.14-28.16-20.46-5.34-3.27-10.72-6.44-16.25-9.4-5.45-2.92-11-5.61-16.59-8.23-12.38-5.43-24.96-10.12-37.88-14.1-12.33-3.51-24.78-6.37-37.41-8.53-13.68-2.09-27.42-3.4-41.26-3.84-12.97-.22-25.91.3-38.82,1.6-12.28,1.42-24.41,3.54-36.44,6.35-10.64,2.71-21.1,5.93-31.4,9.75-10.19,4.01-20.09,8.57-29.76,13.71-7.95,4.46-15.63,9.27-23.08,14.52-6.97,5.17-13.64,10.66-20.05,16.52-5.66,5.47-11.05,11.16-16.13,17.18-4.56,5.69-8.83,11.57-12.8,17.7-3.7,6.05-7.06,12.24-10.12,18.64-2.88,6.52-5.38,13.13-7.57,19.91-1.94,6.79-3.5,13.62-4.71,20.58-.89,6.49-1.49,12.98-1.77,19.53-.05,6.66.21,13.26.78,19.9.9,7.42,2.19,14.72,3.88,22,1.89,7.05,4.09,13.95,6.62,20.79,2.66,6.51,5.59,12.84,8.79,19.1,3.32,6,6.86,11.82,10.64,17.52,1.4,2.11,2.61,3.87,3.48,5.12"/>
            <path class="cls-13" d="M297.45,773.07c-1.39,2.77-3.19,5.19-5.55,7.21-1.09.93-2.26,1.7-3.48,2.38,2.11.66,4.23,1.27,6.36,1.86,14.9,3.59,30.02,5.95,45.23,7.8,21.27,2.39,42.62,3.9,64.01,4.79,21.5.89,43.04,1.24,64.56,1.04,4.26-.04,8.52-.1,12.79-.16,20.98-.41,41.95-1.25,62.89-2.55,20.93-1.3,41.85-3.11,62.68-5.59,4.93-.59,9.85-1.22,14.77-1.88,2.43-.33,4.86-.68,7.28-1.03.58-.09,1.16-.17,1.74-.26,1.11-.27,2.23-.45,3.37-.52,16.64-2.64,33.26-5.71,49.48-10.32,4.91-1.47,9.77-3.1,14.52-5.04,5.34-2.17,11.44-.75,15.74,2.81-1.9,1.8-3.84,3.56-5.8,5.3-10.47,8.89-21.5,17.05-32.95,24.64-1.5.97-3,1.93-4.51,2.88-9.59,3.93-19.31,7.51-29.09,10.91-.33.05-.66.1-.98.16-.31.05-.62.1-.93.14-1.21.32-2.45.5-3.7.57-.08.01-.17.03-.26.04-.62.09-1.24.19-1.86.28-5.08.76-10.18,1.46-15.28,2.12-21.01,2.69-42.11,4.7-63.24,6.14-21.52,1.46-43.06,2.44-64.62,2.96-11.75.28-23.5.44-35.25.44-10.23,0-20.46-.12-30.68-.38-14.81-.38-29.62-.93-44.4-1.85-.62-.07-1.23-.15-1.85-.22-10.83-1.29-21.65-2.64-32.45-4.15-6.47-.91-12.96-1.81-19.41-2.9-1.7-.98-3.39-1.97-5.06-2.99-5.88-3.58-11.59-7.38-17.2-11.36-9.22-6.8-18.06-14.04-26.48-21.82-3.73-3.6-7.38-7.28-10.96-11.04-3.5-3.68-6.97-7.39-10.43-11.12,4.7-2.68,9.72-4.68,14.68-6.81,2.16-.98,4.31-2,6.64-2.51"/>
            <path class="cls-13" d="M584.15,812.78c-.88-4,1.73-8.05,5.72-8.94,6.09-1.36,12.11-3.08,18.04-4.79,14.52-3.89,28.61-9.2,41.51-17.01,20.32-12.64,40.38-27.22,53.89-47.3,8.19-8.32,17.12.86,11.23,9.98-10.63,16.12-25.92,28.5-41.4,39.75-17.1,12.21-35.92,22.22-56.32,27.56-7.85,2.32-15.73,4.66-23.72,6.45-3.91.89-8.08-1.72-8.94-5.72Z"/>
            <path class="cls-13" d="M592.19,802.55c-.85-3.89,1.7-8.2,5.72-8.94,5.07-.93,10.12-1.95,15.17-2.98,13.34-2.81,26.38-6.9,38.96-12.14,19.24-8.56,37.86-19.46,52.12-35.13,9.6-6.34,16,4.31,9.06,12.04-12.88,14.48-29.96,24.59-47.15,33.16-18.34,8.91-38.07,14.69-58.09,18.4-5.87,1.29-13.75,3.49-15.8-4.41Z"/>
            <path class="cls-13" d="M452.39,823.58c-37.49-5.79-75.55-10.27-111.73-22.1-20.72-7.36-40.54-18.41-57.32-32.59-6.67-8.8,2.94-16.47,11.03-10.02,23.07,18.14,50.13,30.44,78.87,36.01,26.16,5.78,52.69,9.63,79.18,13.59,10.51.03,10.63,15.49-.02,15.11Z"/>
            <path class="cls-13" d="M346,823.56c-3.4-.48-6.81-.95-10.22-1.46-31.92-11.79-60.8-32.17-80.83-59.8-8.38-11.64-14.57-24.73-20.51-37.75-4.41-7.45,2.01-18.42,10.33-11.43,3.59,3.5,4.46,8.84,6.94,13.1,5.03,10.41,10.31,20.75,17.33,29.98,16.08,20.88,37.9,37.18,61.9,47.88,10.5,4.29,21.27,8.01,32.33,10.55,6.16,1.42,7.14,7.87,4.46,11.79-7.26-.9-14.51-1.84-21.75-2.86Z"/>
            <path class="cls-13" d="M352.78,824.34c-34.48-11.26-68.72-27.35-93.3-54.78-8.81-9.75-16.2-20.75-22.27-32.39-2.35-5.61-6.77-10.88-6.95-17.11.35-7.8,8.28-9.28,13.03-3.76,3.55,5.37,5.68,11.66,8.96,17.24,15.81,29.62,43.31,51.21,73.67,64.61,10.49,4.25,20.99,8.51,31.75,12.02,9.21,3.36,4.51,17.16-4.89,14.18Z"/>
            <path class="cls-13" d="M346,823.56c-1.23-.17-2.47-.35-3.7-.52-9.77-2.5-19.38-5.51-28.5-9.81-35.91-18.37-60.71-52.38-79.64-87.04-1.3-2.8-3.24-5.42-3.86-8.48-.71-3.95,1.14-9.35,5.75-9.55,9.05.2,10.49,11.32,14.79,17.36,8.11,13.8,17.03,27.14,27.2,39.52,13.18,15.14,28.77,28.97,47.36,36.98,13.68,5.2,28.03,8.52,42.34,11.51,7.04,1.61,7.32,9.79,3.1,13.27-8.29-1.01-16.58-2.08-24.85-3.24Z"/>
            <path class="cls-13" d="M346,823.56c-3.98-.56-7.97-1.11-11.95-1.71-8.56-3.04-16.88-6.62-24.62-11.42-32.83-21.2-61.47-51.53-77.34-87.43-1.4-6.83,4.48-12.59,10.88-8.07,2.1,1.33,3.21,3.52,4.26,5.68,2.97,6.04,6.27,11.93,9.96,17.56,16.37,24.4,37.6,45.86,62.8,61.11,15.66,8.69,33.37,12.83,50.35,18.2,4.75,1.7,5.81,6.22,4.43,9.79-9.6-1.16-19.19-2.37-28.76-3.71Z"/>
            <path class="cls-13" d="M362.35,825.74c-5.45-.69-10.9-1.41-16.35-2.18-6.5-.91-13.02-1.82-19.49-2.92-47.94-14.57-81.68-58.95-100.76-103.8-8.94-16.16,6.7-24,12.38-9.35,15.95,38.68,42.28,77.01,81.42,94.71,15.16,6.35,31.56,9.16,47.97,8.5,9.83-.18,10.66,14.19.79,14.98-1.65.04-3.29.06-4.94.06-.34,0-.68,0-1.02,0Z"/>
            <path class="cls-13" d="M713.83,773.6s7.54-8.55,13.07-19.76c5.53-11.21-18.7,19.03-18.7,19.03l5.64.73Z"/>
          </g>
          <polygon class="cls-13" points="283.58 428.82 310.58 462.46 294.57 472.97 283.58 428.82"/>
          <path class="cls-13" d="M577.81,436.33s.4,5.31,1.38,7.47c.98,2.16-11.18-2.84-11.18-2.84l9.8-4.63Z"/>
          <path class="cls-13" d="M715.08,771.59s-31.99,40.34-81.32,46.91,69.81-52.41,69.81-52.41l11.51,5.49Z"/>
        </g>
      </g>
    </g>
  </g>
</svg>