<?xml version="1.0" encoding="UTF-8"?>
<svg id="Layer_1" xmlns="http://www.w3.org/2000/svg" xmlns:xlink="http://www.w3.org/1999/xlink" version="1.1" viewBox="0 0 1000 1000">
  <!-- Generator: Adobe Illustrator 29.0.1, SVG Export Plug-In . SVG Version: 2.1.0 Build 192)  -->
  <defs>
    <style>
      .st0 {
        fill: none;
      }

      .st1 {
        fill: #fcf7f7;
      }

      .st2 {
        fill: #c464b1;
      }

      .st3 {
        isolation: isolate;
      }

      .st4 {
        clip-path: url(#clippath-1);
      }

      .st5 {
        clip-path: url(#clippath-3);
      }

      .st6 {
        clip-path: url(#clippath-4);
      }

      .st7 {
        clip-path: url(#clippath-2);
      }

      .st8 {
        clip-path: url(#clippath-5);
      }

      .st9 {
        fill: #f8e1e3;
      }

      .st10 {
        fill: #f9efef;
      }

      .st11 {
        mix-blend-mode: soft-light;
      }

      .st12 {
        fill: #6a4681;
      }

      .st13 {
        clip-path: url(#clippath);
      }
    </style>
    <clipPath id="clippath">
      <rect class="st0" x="88.6" y="207.4" width="678.7" height="620"/>
    </clipPath>
    <clipPath id="clippath-1">
      <rect class="st0" x="108.4" y="148" width="701.9" height="678.8"/>
    </clipPath>
    <clipPath id="clippath-2">
      <rect class="st0" x="129" y="241.9" width="571" height="420.9"/>
    </clipPath>
    <clipPath id="clippath-3">
      <rect class="st0" x="393" y="627.3" width="53.8" height="48"/>
    </clipPath>
    <clipPath id="clippath-4">
      <rect class="st0" x="80.7" y="127.5" width="795.7" height="486"/>
    </clipPath>
    <clipPath id="clippath-5">
      <rect class="st0" x="203.2" y="421.2" width="547.2" height="409.2"/>
    </clipPath>
  </defs>
  <g class="st3">
    <g id="Layer_11" data-name="Layer_1">
      <g>
        <g class="st11">
          <g class="st13">
            <g>
              <path d="M307.1,782.5c-13.2-12.2-26.1-25.3-35.7-40.7,10.6,24.7,28.1,45.4,54.5,57.8.8.4,1.5.7,2.3,1.1-7.2-5.9-14.2-12.1-21.1-18.2h0ZM445,814.4c2.1,4.3,4.2,8.5,6.4,12.7-4.2-.3-8.4-.5-12.6-.8-10.9-.6-21.8-1-32.6-1.4-4.6-.2-9.2-.3-13.9-.4-1.5-.1-3-.3-4.5-.4-.8-.1-1.6-.3-2.5-.3-.3,0-.7,0-1,0-.5,0-1.1-.1-1.6-.2-.7,0-1.4-.1-2.2-.2,0,0,0,0,0,0h-.2s0,0,0,0c-.4,0-.7,0-1.1-.1-7.3-.8-14.6-2-21.9-3.3-3.5-.6-7-1.3-10.5-2-4.9-1-9.9-2-14.9-2.2-1.8-.7-3.5-1.5-5.3-2.3-50.7-20.5-74.6-68.8-79.8-120.7-.4-.2-.8-.4-1.2-.6-1.2,1.5-3,2.5-5,2.5-3.4,0-6.2-2.8-6.3-6.2-.1-11.6,0-23.2.5-34.7,1.2-32.2,5.3-65.1,20.4-94.1,12.6-27.8,32.7-48.4,60.5-60.6,2.5-1.6,5-3.1,7.5-4.5,3.8-2.2,8.3-1.1,10.1,1.7,17.9-13.7,37.7-25.3,59.1-34.9-1.6-4.4-3.2-8.7-4.9-13.1-.8-2.2-1.6-4.3-2.5-6.5-1.3,1.2-2.8,2.1-4.4,2.9-4.8,2.3-9.7,4.3-14.5,6.5-4.6,2-9.3,4.1-13.9,6.1-1.2.5-2.3,1-3.5,1.5,1.7,1.9,2.2,4.9.9,7.2-1.6,2.8-5.7,4.3-8.5,2.4-2-1.3-3.9-2.5-5.9-3.8-3,1.3-6,2.6-9,4-.8.3-1.7.5-2.5.5-2.4,0-4.7-1.4-5.7-3.7-1.4-3.1,0-6.9,3.1-8.3,0,0,.2,0,.2-.1.4-.2.8-.3,1.2-.5-.2-.2-.5-.3-.8-.5-26.9-16.6-53.9-33-81.2-49-1.5.2-3-.2-4.2-1.2-1.5-1.3-3.1-2.7-4.7-4-4.7-2.7-9.3-5.4-14-8.1-2.5-1.9-3.4-4.4-3-6.5-5.5-4.8-11-9.6-16.5-14.5-1.4-.3-2.8-1.1-3.7-2.2-1.8-2-3.5-4.1-5.3-6.1-2.1-2-4.2-4.1-6.3-6.1-25.9-27-71.7-76.3-73-118.8,0,0,0,0,0-.1-.3-2-.8-4.4-.9-6.8-3,2.5-5.8,4-10.2,3-9.8-7.4,7.7-17.1,13.2-21.4,9.2-6,20.7-6.8,31.4-6.7,30.2.9,58.5,13.6,84.9,27.2,63.8,32.4,109,91,144.3,151.8,10.4,18.3,19.3,37.4,26.7,57.1,1.6,4.3,3.2,8.5,4.8,12.8,1.1-.5,2.2-.9,3.4-1.4,13.2-4.7,67.6-26.5,76.7-11,13.4-9,32.6-18.6,37.8-7.5.8,8.2-9.1,7.3-14.4,9.1-13.2,4.9-24.4,14.1-34.6,23.6-44.3,41.7-47.2,107.2-47.2,164.3.6,44.5,2.1,89.1,6.8,133.4,2,16.3,5.4,32.6,12.8,47.4h0Z"/>
              <path d="M388.1,824.3c0,0-.2,0-.3,0h0c0,0,.2,0,.3,0Z"/>
              <path d="M380.5,823.4s0,0,0,0c0,0,0,0,0,0Z"/>
              <path d="M380.3,823.4h0Z"/>
              <path d="M380.2,823.4h0,0c-.1,0-.2,0-.3,0,0,0,.2,0,.3,0h0,0,0Z"/>
              <path d="M379.5,823.3s0,0,0,0c-.1,0-.3,0-.4,0,.1,0,.2,0,.3,0h0Z"/>
              <path d="M554.8,384.2c3.8-36.1,19.9-70.5,42.9-98.3,6.6-7.8,13.9-15.1,21.7-21.9,5.1-3.4,12-13.6,18.3-9.2.3-1.4.8-2.8,1.4-4-1.6-3.2-.5-7.9,4.8-8.5,1.4,0,2.6.7,3.5,1.6,3-2,6.9-1.9,8.5,2.6,1.5,5-1.8,9.8-2.2,14.8-10,55.6,13,104.4,52.9,142.3,7,7.2,14.2,14.2,21.3,21.3,6.8,6.8,13.6,13.7,20.5,20.5,2.4,2.4,2.6,6.4.2,8.8-2.3,2.4-6.4,2.6-8.8.2-12.4-12.4-24.9-24.8-37.3-37.3-2.7-2.7-5.3-5.3-8-8.1-10.4,15.1-19.6,31-28.6,47-4.5,6.6-7.3,16-15.3,19h0c-1.3,2.5-2.6,5-3.8,7.5-2.4,4.9-10.3,3.8-11.5-1.4-.5-2.6.5-5,1.8-7.3-10.6-3.5-21-12-30.1-16.7-13.9-8.4-28.3-16.1-41.2-26-13-11.3-12.2-31.4-11-47.2h0Z"/>
              <path d="M756.1,455.5c-2.1,2.8-6,3.2-8.8,1.3-16.5-11.3-32.4-23.5-46.9-37.3-31.7-29.1-51.3-70-58-112.3-2-18.3-1.5-37,.8-55.3.2-7.8,10.3-11.8,12.4-2.8.5,5.6-1.4,11.2-1.3,16.9-3.5,35.3,4.3,68.5,20.4,99.9,10.8,21.6,27.7,39.4,45.9,55,5.5,4.6,11,9.2,16.7,13.5,5.7,4.3,11.5,8.4,17.4,12.4,2.8,1.9,3.3,6.1,1.3,8.7h0Z"/>
              <path d="M763,460.8c-2,2.7-6.1,3.4-8.7,1.3-18.7-15-35.2-32.4-51.3-50-22.1-23.3-39.6-50.3-57.5-76.7-3.2-4.6-6.6-9.5-10.1-14.5-2.7-4.4-7-8.2-8.3-13.3-1.2-7.1,6.4-9.2,10.8-4.6,18.6,25.1,34.8,51.9,53.9,76.7,19.9,24.6,41.7,47.9,65.6,68.7,3.5,2.7,9.7,7.1,5.8,12.4h0Z"/>
              <path d="M254.2,566.8c18,5,27,22.3,29.9,40.1,1.3,9.3-.5,17-1.2,26.6-.6,26.2,1.6,53.4,11.2,78,6.4,12,14.7,22.8,23.5,33.2,6,6.8,13.9,11.6,18.3,19.7,10.5,16.7,6.1,38.2-6.7,51.5-.7,0-1.3,0-2,.1-2.6.2,14.3-34.7-7.1,2.3-61.1-47.5-3.1-3.9-5.3-5.4-4.8-3.2-9.9-6-14.9-8.9-4.9-2.8-9.7-5.6-14.6-8.4-9.2-5.2-18.4-10.3-27.6-15.4-.3-.2-.6-.3-.9-.5-.5-.3-1.1-.6-1.7-.9-.5-.3-1-.6-1.5-.8,0,0,0,0,0,0-.2-.1-.4-.2-.6-.3,0,0-.2,0-.2-.1-.3-.2-.5-.3-.8-.5.2.1.5.3.7.4-2.7-1.5-5.5-3-8.2-4.5-4.8-8.9-9.2-17.9-13.5-27-3.8-8.6-7.5-17.2-10.9-25.9-3.2-8.4-6-16.9-8.7-25.4-1.4-5.1-2.8-10.3-4-15.5"/>
              <path d="M254,778.2c0,0-.2,0-.2-.1,0,0,.2,0,.2.1Z"/>
              <path d="M253.7,778h0s0,0,0,0h0Z"/>
              <path d="M253.3,777.9c.1,0,.2.1.3.2,0,0,0,0,0,0,0,0-.2,0-.2-.1h0Z"/>
              <path d="M253.3,777.9c-.1,0-.2-.1-.4-.2,0,0,.1,0,.1,0,0,0,.2.1.3.2Z"/>
            </g>
          </g>
        </g>
        <g>
          <path class="st12" d="M640.5,257.1l-3.7-2.6s-4.4,6.2-1.8,5,5.5-2.4,5.5-2.4h0Z"/>
          <g class="st4">
            <g>
              <path class="st1" d="M362,349.1c6.2,13.2,12.1,26.6,17.5,40.2-1.7-2.4-3.5-4.7-5.2-7.1-3.6-11.2-7.7-22.2-12.3-33.1h0Z"/>
              <path class="st1" d="M304.8,255.1c-9.1-10.8-18.9-21.1-28.9-31-3.5-3.6-7.1-7.1-10.7-10.6,14.4,12.8,27.6,26.7,39.6,41.6Z"/>
              <path class="st1" d="M189.9,157.7c3.1,3.7,6.2,7.4,9.4,11.1-2.2-.9-4.5-1.6-6.8-2.4-10.4-4.4-20-6.5-28.5-6.7,5.4-8,17.5-11.5,26-2h0Z"/>
              <path class="st10" d="M455.5,825.6c-5.1.2-8.3,0-24.7-1.8-20.7-2.2-31-3.5-33.7-3.7-11.8-1-23.8-2-35.7-.8-2.4.2-4.7,1-6.7,2.1-2.4-.3-4.7-.6-7-1-3.1-1.9-6.2-3.8-9.2-5.9-10.3-1.4-20.7-2.8-31-4.1-15.9-2.8-17-21.2-7.5-28.9-19.7-20.9-35.7-45.3-45.4-69.7-26-66.3,3.5-140.6,44.9-194,3.3-3.3,7.8-8.2,12.9-13.4-.3-1.2-.5-2.4-.6-3.6-7.2-7.2,20-35.9-15.5-51.3-65.1-28.3-69.7-33.2-100.7-65.5-30.3-32.4-63.1-65.5-77.5-108.5-7.8-20.1-9.5-41-6.3-59.1.5-12.7,3.8-24.5,9.8-34-8-11.4,6.6-26.8,21.3-23.4,2.9.4,5.8,1,8.7,1.8,3.8-.8,8-1.2,12.3-1.1,8.6.2,18.1,2.3,28.5,6.7,2.3.7,4.6,1.5,6.8,2.4,25.2,9.5,46.6,26.1,66,44.7,3.6,3.5,7.2,7,10.7,10.6,10,9.9,19.8,20.2,28.9,31,5.4,6.4,10.6,12.9,15.5,19.7,5.6,7.7,10.9,15.6,15.8,23.7,2.1,2.8,4.2,5.6,6.3,8.5,1.9,2.3,3,5.2,3.3,8.2,6,11.1,11.4,22.4,16.2,34,4.6,10.9,8.7,21.9,12.3,33.1,1.7,2.4,3.5,4.7,5.2,7.1,3,4.1,6,8.2,9.1,12.3,11.8,16.1,23.7,32.2,35.4,48.4,25.5-6.7,49.9-9.9,74.3-8.6,12.9-6.1,35.9,2.2,48.3,5.4,5.7,1.9,11.3,3.9,16.8,6.2.1-6,.8-12.2.6-17.2.3-9.1.8-18.1,1.5-27.2,2.2-30.8,8.7-62,20.6-90.6-2.4-4.8-2.3-11.3,2.3-18.7,4.5-5.1,9.4-9.8,14.7-14.2.5-.9,1.1-1.7,1.7-2.6-1.7-8.4,4.3-19.2,14.1-22.7,1.9-9.8,11.1-14.1,19.8-12.4,15.5-8.7,34.1-11.7,51.8-8.1,29.2,6.8,53.2,27.1,73,48.7,12.1,13.1,21,27.9,26.9,43.2,8.2,12.2,14.1,25.6,14.1,40.7-.3,8.4-2.2,15.9-5.3,22.3.4,5.6,0,11.3-1.3,16.9-7.6,31.8-52,57.1-79.7,44.1-4.4-2.1-12.4-7-19-19.8-3.5,6.2-10.7,17-23.9,25.7-8.4,5.5-16.4,8.3-22.2,9.8-4.5,6.8-9.6,12.7-15.8,13.9-11,2.5-20.6-8.2-19.2-18.4-6.3-3.1-12-7.5-16.5-13.1-1.8.4-3.6.5-5.4.2.2,5.3,0,10.6-1.5,15,10.4,6.1,20.3,12.9,29.7,20.4,10.1,6.9,19.9,14.2,29.5,21.7,8.2,4.1,14.1,14.7,12.7,23,33.7,50.6,56.9,124.7,48,183.5-3.4,17.7-9.5,34.5-16.7,50.9-9.6,8.1-19.4,16.2-29.1,24.2-2.4,1.9-4.8,3.9-7.3,5.8-2.9.5-5.7,1.9-8.3,3.4-.6.3-1.2.6-1.9.9-2.7,1.3-5.4,2.6-8.1,4,1.9-3.3,3.7-6.7,5.4-10.2,4.2-8.6,8.6-17.4,12.8-26.2-8.1,6.4-16.9,11.9-26,16.7-14.3,12.3-30.4,23.2-47.2,31.9-7.2.2-14.5.5-21.6.8-21.6.8-43.1,1.7-64.7,2.7-7.4.3-14.7.5-22.1.7-12.1.4-15,2.5-24.3,2.9h0Z"/>
              <path class="st10" d="M804.3,425.3c-3.8,7.6-32.7,21.8-21.2,7.3,11.5-14.5-17.8-2.5-20.1-10.8-2.3-8.7-4.6-17.4-7-26.1-8.8-28.3-13.6-58.7-29.8-84-9.4-17.7-26.3-30.9-46.3-34.2-15.5-2.9-30,3-44.2,8.1-22.9,3.5-27.4-20.9-8.7-30.9,27-13.4,60.1-14.1,86.7.5,20.6-4,33.2,24.1,44.1,37.6,21.7,26.6,39.7,57.8,45.5,92.1,4,12.9,6.7,27.8,1.1,40.6h0Z"/>
              <path class="st10" d="M715.3,697.8c-3.9.5-8.1-2.4-8.4-6.5-.8-9.8-2.4-19.5-4-29.1-1.7-9.9-3.6-19.8-5.5-29.7-9.5-42.8-22.5-87.1-51.3-121.1-7.3-5.5-8.2-18.4,3.7-16,32.4,23.4,54.4,94.8,62.1,133.4,2.1,10.3,4,20.7,5.8,31,1.7,9.8,3.3,19.7,4.1,29.6.5,4-2.4,7.9-6.5,8.4h0Z"/>
              <path class="st10" d="M725,713c0,9.9-14.9,9.7-15,0-1.1-32.8-2.6-65.8-7.3-98.4-6.1-32.9-21-63.7-40.9-90.4-2.2-3-4.6-5.8-7-8.6-2.5-3-6.2-5.1-7.5-8.9-2.3-5.4,2.3-10,7.8-9.1,13.4,3.7,34.8,41.5,41.7,54.4,26.7,49.2,25.7,106.6,28.2,161h0Z"/>
              <path class="st10" d="M309,795.9c-8.1,16.2-25.1-5.5-31.9-12.8-14.6-11.7-27.1-26-36.4-42.2-8-14.7-15.9-29.6-21.5-45.4-1-3.2-2.2-6.5-1.9-9.9.3-3.4,2.7-6.5,6.1-7.3,6.8-1.7,10.9,5.6,14.4,10.1-3.5-36.3-.4-73.5,9.5-108.6,4.4-14.1,10-28.1,18.8-40,3.8-4.4,12.3-4,12.9,2.7.9,5.5-3.8,9.5-5.9,14-23,43.9-26.1,105.8-16.8,153.9.4,1.7.8,3.4,1.2,5,10.6,14.2,21.2,28.6,33.7,41.2,7.2,5.1,14.4,10.2,21.6,15.2,2.9,2,3.7,6.1,2.3,9.2,2,1.9,4.3,3.4,6.6,4.8,8.7,8.2-2.8,19.2-12.7,9.7,0,.1,0,.2,0,.3h0Z"/>
              <path class="st10" d="M361.6,819.3c-2.4.2-4.7,1-6.7,2.1-2.1-.3-4.2-.6-6.3-.9-10.4-7.9-25.5-23.8-31-27.9-11.7-11-23.7-21.8-34.9-33.3-17.2-18.1-32.6-38.3-44-60.5-3.8-5.4,0-15.5,7.5-12.5,7,3.2,8.4,12.4,13.2,18.8,11.1,18,24.6,34.7,39.8,49.5,20,19.2,40.3,38.2,61.3,56.2,3,1.8,4.1,5.3,3.5,8.3-.8,0-1.5.1-2.3.2h0Z"/>
              <path class="st10" d="M299.7,773.8c12,14.9,24.1,29.9,36,44.8-7.5-1.1-14.9-2.4-22.3-3.8-1-1.2-2-2.5-3-3.7-6.4-8-12.8-15.9-19.2-23.9-4.7-5.8-9.3-11.6-14-17.4-6.1-3.9-17.8-9.6-11.9-18.4-10.3-8.6-20.6-17.3-30.5-26.3-3.2-3.3-7.6-5.8-8.8-10.5-2.5-9,9-11.2,13.9-5.3,11.8,11,24.1,21.4,36.5,31.7,5.9,5.9,18.6,12.1,19.9,20.5,3.7,2.7,6.5,7.8,3.4,12.1h0Z"/>
              <path class="st10" d="M341.9,808.9c2.7,3,1.8,8.1-1.2,10.5-3.7-.5-7.3-1.1-11-1.7-14.2-16.3-27.9-33-41.7-49.6-13.8-16.6-26.6-34.1-38.9-51.8-3.8-6.8-16.5-20.3-15.2-27.4.4-5.3,6.5-7,10.7-4.4,2.5,1.4,3.9,3.9,5.4,6.2,4.2,6.4,8.6,12.8,13,19.1,12,17.4,24.7,34.3,38.2,50.6,13.4,16.3,26.8,32.7,40.8,48.5h0Z"/>
              <path class="st10" d="M332.7,815.3c-1.2,1.2-2.8,2-4.5,2.2-1.5-.2-3-.5-4.5-.8-.6-.3-1.2-.8-1.7-1.3-7.2-7.8-14.2-15.9-21.2-23.9-17.8-20.4-34.9-41.8-46.5-66.4-1.8-4.4-5.2-8.6-4.6-13.5.4-5.4,5.9-8.3,10.5-5.2,5.1,3.4,6,10.2,9.1,15.2,9.9,20,23.6,37.8,38.1,54.7,6.6,7.7,13.3,15.4,20,23,4.1,4.4,10.8,10.1,5.1,16.1h0Z"/>
              <path class="st10" d="M332.5,810.8c-7.6,7.1-13.8-3.8-18.9-8.5-9.2-9.7-18.4-19.4-27.6-29.2-4.9.4-8.8-3.3-12.3-6.3-4.7-3.8-10.4-10-5-15.6,0-.6.1-1.3.3-1.9-3.4-3.6-6.8-7.3-10.3-10.9-1.6-1.6-3-3.4-3.6-5.7-1.7-5.8,2.9-10.3,8.6-8.6,2.9.6,4.8,2.9,6.7,4.9,2.7,2.8,5.3,5.7,8,8.5,5,6.3,20.1,18.5,19.1,26.1,11.5,12.3,23.1,24.5,34.8,36.6,2.8,3,3.1,7.6.1,10.6h0Z"/>
              <path class="st10" d="M292.2,803.9c-8.4,4.5-12.2-6.2-15.7-11.8-5.3-8.9-10.6-17.8-15.8-26.7-11.1-18.6-21.5-37.8-27.7-58.7-1.6-5.3-3-10.6-4.2-16-1.1-6.2-4.2-14.7,2.5-18.8,2.6-1.4,5.6-.6,7.7,1.5,3.7,3.5,3.3,9,4.4,13.6,2.4,11.6,6.2,22.8,10.7,33.7,6.7,16,15.8,30.9,24.6,45.8,5.4,9.1,10.8,18.2,16.2,27.3,2.1,3.5.8,8.2-2.7,10.3h0Z"/>
              <path class="st10" d="M287,792.3c-3.7,1.6-8.2-.3-9.8-4-8.6-19.8-17-39.8-25.3-59.8-3.6-9.2-16.1-37-12.7-45.3,2.6-6.5,10.1-5.1,13,.3,2.6,7,3.8,14.6,6.5,21.6,2.1,5.7,4.4,11.2,6.7,16.8,8.4,20.3,16.9,40.5,25.6,60.7,1.6,3.8-.3,8.2-4,9.8h0Z"/>
              <path class="st10" d="M349,782.7c-3.5,2.8-7.2,4.9-11.1,6.4-1.3-.5-2.6-1-4-1.4-4-1.7-8-3.4-12-5.2-3.8-1.7-7.5-3.7-11.2-5.7-3.6-2.2-7.2-4.4-10.7-6.6-3.7-3.8-7.4-7.6-11.1-11.3-10.1-10.3-19.9-20.9-29.8-31.5-1.4-3.2-2.7-6.4-3.8-9.7-2.3-6.3-4.4-12.7-6.4-19.1-3-10-5.7-20-8.1-30-.1-.6-.3-1.2-.4-1.8,3.8-28.6,31.4-51.2,59-32.6,19.6,12.2,22,29.1,30.9,48.4,8.5,16,18,30.8,29.1,45.3,10.9,17.5,6,42.5-10.4,54.9h0Z"/>
              <path class="st10" d="M350.1,765.5c6.8,11.3,7.4,25.1,2.8,37-4.6-.8-9.3-1.6-13.9-2.5-1.2-.2-2.4-.5-3.6-.7-2.3-.8-4.6-1.7-7-2.5-4-1.7-8-3.4-12-5.2-3.8-1.7-7.5-3.7-11.2-5.7-3.6-2.1-7.2-4.4-10.7-6.6-3.7-3.8-7.4-7.5-11.1-11.3-10.1-10.3-19.9-20.9-29.7-31.5-1.4-3.2-2.7-6.4-3.8-9.7-2.3-6.3-4.4-12.7-6.4-19.1-2.8-9.6-5.4-19.2-7.8-28.9,17.5-28.4,61.5-17,77.8,20.3,12.1,22.2,24.2,44.4,36.7,66.4h0Z"/>
              <path class="st10" d="M332.2,801c-2.9,1.7-5.9,3-9,4-.1,0-.3,0-.4,0-2.3-.8-4.6-1.6-6.9-2.5-4-1.7-8-3.4-12-5.2-3.8-1.7-7.5-3.7-11.2-5.7-3.6-2.2-7.2-4.4-10.7-6.6-3.7-3.8-7.4-7.6-11.1-11.3-10.1-10.3-19.9-20.9-29.8-31.5-1.4-3.2,14.7-27,13.5-30.2-2.3-6.3-21.7,7.8-23.7,1.4-3-10-5.7-20-8.1-30-2.4-10-4.2-20.1-5.9-30.2-.3-1.9-.5-3.8-.8-5.6,8.6-6.3,19.5-9.6,30.4-8,21.8,2.3,32.9,22.8,46.2,37.6,15.4,8,21.6,21.1,30.3,34.9,8.1,12.6,20.8,22.2,26.8,36.1,8,19.4.4,42.4-17.8,53h0Z"/>
              <path class="st10" d="M365.7,738.6c16.8,15.3,16.9,44,1,59.9-9.3-1.4-18.5-3-27.8-4.8-1.2-.2-2.4-.5-3.6-.7-2.3-.8-4.6-1.7-6.9-2.5-4-1.7-8-3.4-12-5.2-3.8-1.7-7.5-3.7-11.2-5.7-3.6-2.1-7.2-4.3-10.7-6.6-3.7-3.8-7.4-7.6-11.1-11.3-10.1-10.3-19.9-20.9-29.7-31.5-1.4-3.2-2.7-6.4-3.8-9.7-2.3-6.3-4.4-12.7-6.4-19.1-1.8-5.9-3.4-11.9-5-17.8,2.2-7.2,6.2-13.8,12.3-18.9,13.6-10.5,32.2-7.7,46.5.1,9.8,5,17,13.7,23.3,22.5,9.3,11.9,19,23.5,29,34.9,5.2,5.7,10.5,11.3,16.2,16.5h0Z"/>
              <polygon class="st10" points="260.7 563.2 265.8 592.4 298.3 536.9 278.7 540.9 260.7 563.2"/>
            </g>
          </g>
          <g class="st7">
            <g>
              <path class="st9" d="M354.8,444.2c3.5,11.3,6.9,22.6,10.2,34,1.2-.5,2.5-1.1,3.7-1.6-1.5-.2-3-.9-4.2-2.4-4.4-9.5,10.4-11.8,16.5-14.5,68.7-23.4,144.5-19,212.3,5.8-.6-16.4-.5-32.9,2-49.1,2.4-14.1,9.4-49.9,19.6-58.9,4.7-3.2,9.9.6,9,6-.3.6-.6,1.3-.9,1.9.2.2.4.4.6.7,11.4,15.4,23,30.6,34.4,46,7.3,9.8,15.9,22.1,11.8,34.9-4.3,8.9-14.3,26-24.4,28.1-3.4.7-6.7-.7-9.1-3.1-9.7-8.4-19.9-16.3-30.9-22.9,0,7.1.2,14.2.5,21.3,6.5,2.7,13,5.6,19.3,8.6,9,4.1,18,8.2,26.7,12.8,2.1,1.1,3.1,3.3,3,5.4,0,.9-.3,1.9-.6,2.7-.8,1.6-2.1,2.9-4,3.3-3,.8-5.6-1.3-8.2-2.5-6.3-3.1-12.6-6.1-19-9,5.9,3.3,11.7,6.6,17.5,9.9,0,0,0,0,0,0,7.1,2.4,23.3,5.7,26.4,12.9,1.6,3.9-.8,6.5-4,7.3,2.8,1.5,5.6,3.2,8.4,5,7.3,4.8,14.4,9.6,21.6,14.8,6.4,5.2-1.2,14.7-7.7,9.8-27-20.7-59.7-36.5-94.6-34.6-29.7,1.4-58.1,13.1-81.8,30.9-8.6,7.8-16.7,16.2-24.4,24.6-23,25.3-39.8,55.4-58.6,83.7-4.1,6.4-13,1.4-11.4-4.7-8,1.4-7.9-7.5-9.2-13-2-9.5-4.1-19.1-6.3-28.6-7-30.7-16.2-62.3-36.4-87.2-9.2-10.7-20.4-21.1-35-22.9-11.5.7-13.1-11.4-1.7-12.6,5.1.2,10,1.3,14.7,3,.6-.7,1.3-1.3,2.2-1.7,2.4-1.2,4.8-2.4,7.1-3.5,1.2-.6,2.3-1.1,3.5-1.7-1.4-2.4-2-5.6-2.8-8.1-2.1-6.9-10.2-16.5-12.1-14.4,2.1,1.4,4.3,2.8,6.4,4.2,2.9,1.7,4,5.6,2.2,8.5-1.7,2.8-5.7,4.1-8.5,2.2-18-11.8-35.7-23.8-53.5-35.9-53.9-37.3-111.8-77.9-143.2-136.7-1.8,2.7-5.3,4.1-8.1,1.5-1.9-1.4-2.9-3.7-3.1-6-1.8-13.9,3.1-28.4,12.9-38.5,14.7-15.5,38.4-18.2,58.6-15,78.4,15.5,124.3,105.3,144.9,175.5,1.7,5.5,3.4,10.9,5.1,16.4"/>
              <path class="st9" d="M692,457.3c-6.6,5.6-17.3,5.1-22.9-1.8-5.4-6.6-10.7-13.2-16.1-19.9-8.5-10.2-21.5-23.1-11.1-36.6,4-4.6,10.9-4.8,16.3-3,9,2.8,13.6,11.9,19.6,18.6,5.4,6.6,10.8,13.2,16.1,19.9,5.7,6.6,4.9,17.3-1.8,22.9h0Z"/>
              <polygon class="st9" points="692.6 546.5 602.9 483.3 650.1 485.5 696.4 542.4 692.6 546.5"/>
            </g>
          </g>
          <g class="st5">
            <path class="st2" d="M422.8,671.1c-6.3,3.9-13,1.5-16.8-4.6-5.3-7.3-12.7-15.8-10.4-25.5,2.1-8.8,9.8-10.7,17.8-11,8.2-.4,18.1-2.5,24.8,3.5,8.4,7.3,1.2,18.7-4.1,25.7-2.7,4.7-6.4,9.2-11.2,11.9h0Z"/>
          </g>
          <g class="st6">
            <g>
              <path class="st12" d="M318,509.4c-.2.1-.4.3-.5.4-.2-.4-.4-.7-.7-1,.4.2.8.4,1.2.6h0Z"/>
              <path class="st12" d="M409.9,462.6c-6.9,2.1-13.7,4.5-20.4,7.1-2.6-9.2-5.2-18.4-8.2-27.5-.3-1-.7-2-1-3,10.4-3.5,20.9-7,31.5-10.1-.2,4.8-.5,9.6-.8,14.4-.4,6.4-.7,12.8-1,19.2h0Z"/>
              <path class="st12" d="M657.5,493.7c-1.4.8-2.7,1.6-4.1,2.4-5.2-3.8-10.6-7.5-16-11,0-.3,0-.6,0-.9,0,.3,0,.5,0,.8.2-2.6.5-5.2.8-7.8,1.4-2.2,2.8-4.4,4.2-6.7.8-1.2,1.5-2.5,2.3-3.7,8.5,6.3,16.6,13.1,24.2,20.4-3.8,2.2-7.6,4.3-11.4,6.5h0Z"/>
              <path class="st12" d="M605.7,443.4c-.1,0-.2.2-.3.3,0-.2,0-.3-.1-.5.2,0,.3.1.5.2h0Z"/>
              <path class="st12" d="M578.9,441.1c1.2,6,2.9,11.9,4.9,17.8-3.2-1-6.5-1.9-9.8-2.7-5.2-1.2-10.3-2.2-15.6-2.9-4.8-9.7-9.4-19.5-13.9-29.3-.3-.6-.6-1.3-.9-1.9,10.8,2.3,21.6,5.3,32.1,8.9,0,.3.2.6.2.8.7,2.5,1.6,5,2.6,7.4h0c.1.6.2,1.2.4,1.9h0Z"/>
              <path class="st12" d="M314.3,483.5c-.4,0-.8,0-1.2,0-11.7,0-32.8-20.2-44-26.3-71.1-46-167.9-135.2-182.7-221.7-5.5-35.9,11.4-76.3,44.2-93.6,27.4-14.2,60-4.5,86.8,6.8,87.6,46.6,165.2,146.1,190.1,242,1.3,7.2,3.9,21,4.4,34.6,0,.8,0,1.6,0,2.3-.2,5.2-.6,10.4-.9,15.6,0,.4,0,.8,0,1.2-2,10.4-6.8,18.1-16.6,18.4-3-.4-5.4-1.3-7.3-2.5-1.8-6.1-3.6-12.2-5.6-18.3-.6-2-1.3-3.9-2-5.8.2-6.1.7-12.2,0-17.1-.9-13.9-4.1-27.5-8.4-40.7-26-76.6-115-194.3-197.6-210.3-33.6-10.1-58,26.6-55.8,56.8,5.2,47.4,38.1,85.9,68.4,120.5,25.7,28.5,54.5,54,86.6,75,16.5,11.5,33.1,22.8,49.7,34.2,11.4,8,6,27.4-7.8,28.6h0Z"/>
              <path class="st12" d="M341.6,468.3c1.9,2.1,3.8,4.3,5.7,6.4.8,7.5-3.5,15.5-11.8,17.5-1.1.3-2.3.5-3.5.5-8.4,0-17.4-7.3-24.7-10.6-3.7-2.1-7.8-4.1-10.9-7.1-13.7-13.4-4.4-31.5,14.6-26.9"/>
              <path class="st12" d="M661.9,491.1c-1.5.5-3,.7-4.5.7-10.3,0-18.5-11-15.4-20.9.1-.2.2-.3.3-.5,1.2-1.9,2.4-3.9,3.5-5.8.5-.5,1.1-1.1,1.7-1.6,5.4-4,10-9,13.9-14.5,5.2-7,7.3-16.4,14.3-21.8,10.4-8.2,23.3-3.2,24.4,10.2.7,5.5-1.2,10.8-4,15.5-6.8,13.2-15.6,25.7-27.4,34.8-2.3,1.3-4.5,2.6-6.8,3.9h0Z"/>
              <path class="st12" d="M565.7,451.4c-1.5.5-3.1.7-4.6.7s-2.4-.1-3.5-.4c-4.5-9.2-8.8-18.4-13.1-27.7-1-2.2-2.1-4.4-3.1-6.7-.3-.8-2.2-14.6-2.3-20.8-.3-22.3,4.1-44.9,11.6-66,3.8-10.6,8.1-21,13.1-31,4.9-9.9,10.2-19.7,16.5-28.8,3.5-5.1,7.1-10,11.1-14.8,3.7-4.6,8-8.7,12.3-12.6,4.2-3.8,8.9-7.3,13.7-10.2,1.8-1.1,3.6-2.2,5.5-3.1,3.2-1.5,6.7-2,10.3-1.8,5.6.3,11.2,3.3,13.7,8.4,1.6,3.2,1.3,7.5,0,10.8-.7,1.5-1.3,3-2.3,4.4-1.1,1.5-2.1,2.6-3.5,3.9,0,0-1.3,1.3-2.8,2.2-.6.4-1.2.7-1.8,1-2.4,1.5-4.7,3-6.9,4.6-2.5,1.9-4.8,3.9-7.2,6-3.2,3.2-6.1,6.5-9,9.9-4.1,5.4-7.8,10.9-11.4,16.6-5.4,9.2-10.2,18.7-14.6,28.5-3.6,8.4-6.9,16.9-9.5,25.6-2.1,7.3-3.8,14.6-5,22-.9,6.3-1.5,12.6-1.8,18.9,0,5,0,10,.5,14.9,0,1.5.1,2.9.3,4.3.2,2,.6,3.9,1,5.9.4,2.2.7,4.4,1.2,6.5,0,.6.1,1.1.2,1.6.3,2.5.9,5,1.6,7.4.3,1,.6,2.1,1,3.1.5,7.2-4,14.2-11.2,16.4h0Z"/>
              <path class="st12" d="M797.1,465.8c-13.2,7.1-23.1,7.7-33.2,7.7-28,.2-59.7-19.9-61.4-21-9.4-6-16.7-11.1-28.9-23.7-21.4-22.1-37.8-48.4-57.5-71.9-13.3-16.5,10.4-36.4,24.4-20.7,27.5,32.9,48.9,72.5,87.1,94.3,21.4,13.5,55.5,17.4,70.6-7.1,8.4-15.8,6.3-34.8,2.9-51.8-7.1-25.4-20.2-49-35.4-70.4-19.9-27.2-48.5-47.8-82.9-50-13.3-.1-26.5,2.2-39.4,5.1-10,3.6-24,4.9-29.7-6.2-3.1-7.5.9-14.7,7.1-19.2,1.9-.8,3.8-1.6,5.7-2.4,1.6-.7,3.2-1.4,4.7-2,16.7-4.1,33.9-7.5,51.1-7.2,33,1.5,65.1,16,88.3,39.3,48.2,46.2,105.7,164.7,26.6,207.2h0Z"/>
              <path class="st12" d="M603.3,612.5c-10.3.7-19.4-7.8-19.9-18-.2-2.4-.6-4.7-1.1-7-3.7-9.6-4-23,5.4-29.6,12.4-7.4,27.3,3.8,30.3,16.4,1.9,6,2.8,12.1,3.4,18.4.9,10.1-8,19.6-18,19.9h0Z"/>
              <path class="st12" d="M351.7,594c-7.6,6.8-20.3,5.9-26.8-1.9-3.2-3.7-5.3-9.1-4.6-14,.9-5.5,1.5-11.2,3.3-16.5,3.4-10,14.9-18.7,25.6-15,11.7,4.9,13.1,19.8,9.6,30.5-.8,6.1-2,12.8-7.2,16.9h0Z"/>
              <polygon class="st12" points="541 414.7 544.9 438.2 572.1 435.8 544.3 418.4 541 414.7"/>
              <path class="st12" d="M325.3,455.6c-12.3-5.5-29.3-18.4-29.3-18.4l16.2,22.8,21.6,10.3,5.2-9.4s-1.4.2-13.7-5.3h0Z"/>
              <path class="st12" d="M656.4,252.4l-23.8-9.1s-30.5,41.3-17.3,29.7c13.2-11.6,40.4-20.5,40.4-20.5"/>
            </g>
          </g>
          <g class="st8">
            <g>
              <path class="st12" d="M683.7,734.1c.9-1.2,2.1-3,3.5-5.1,3.8-5.7,7.3-11.5,10.6-17.5,3.2-6.3,6.1-12.6,8.8-19.1,2.5-6.8,4.7-13.7,6.6-20.8,1.7-7.3,3-14.6,3.9-22,.6-6.6.8-13.2.8-19.9-.3-6.6-.9-13-1.8-19.5-1.2-7-2.8-13.8-4.7-20.6-2.2-6.8-4.7-13.4-7.6-19.9-3.1-6.4-6.4-12.6-10.1-18.6-4-6.1-8.2-12-12.8-17.7-5.1-6-10.5-11.7-16.1-17.2-6.4-5.9-13.1-11.4-20-16.5-7.4-5.3-15.1-10.1-23.1-14.5-9.7-5.1-19.6-9.7-29.8-13.7-10.3-3.8-20.8-7-31.4-9.8-12-2.8-24.2-4.9-36.4-6.4-12.9-1.3-25.9-1.8-38.8-1.6-13.8.4-27.6,1.7-41.3,3.8-12.6,2.2-25.1,5-37.4,8.5-12.9,4-25.5,8.7-37.9,14.1-5.6,2.6-11.1,5.3-16.6,8.2-5.5,3-10.9,6.1-16.3,9.4-9.8,6.3-19.1,13.1-28.2,20.5-7.4,6.3-14.4,12.9-21.1,20-5.9,6.5-11.4,13.2-16.6,20.2-5.1,7.2-9.7,14.6-14,22.3-3.4,6.4-6.3,13-9.1,19.7-2.5,6.9-4.7,13.8-6.6,20.8-1.6,6.8-2.8,13.7-3.7,20.6-.7,7.4-1,14.7-.9,22.1.3,6.5.9,12.9,1.8,19.3,1.2,6.5,2.6,13,4.5,19.4,2.2,7,4.8,13.7,7.7,20.4,2.9,6.1,6.1,12,9.6,17.7,4.4,6.8,9.1,13.4,14.2,19.7,5,5.8,10.2,11.3,15.8,16.6,6.5,5.9,13.2,11.3,20.2,16.5,4,2.8,8.2,5.5,12.4,8.1-15.1-.6-30.3-1.1-45.4-1.7-9.5-6.6-18.8-13.5-27.6-21-1.8-1.6-9.6-10.5-11.6-13.4-13.4-19.3-23-41-28.7-63.8-2.7-10.7-4.2-21.8-4.7-32.8-.6-12.1-.2-24.4,1.6-36.5.9-5.7,1.9-11.3,3.2-16.9,1.4-5.9,3.1-11.7,4.9-17.4,3.7-11.4,8.7-22.5,14.4-33.1,10.9-20.1,24.7-38.6,40.8-54.7,8.4-8.4,17.2-16.1,26.5-23.4,9.1-7.2,18.9-13.5,28.8-19.6,19.4-11.9,40.6-21.2,62.1-28.5,22-7.5,44.9-12.3,68-15.1,11.2-1.4,22.4-1.9,33.7-2.1,10.4-.2,20.8.1,31.1,1,22.9,2,45.4,6.2,67.4,13,10.7,3.3,21.3,7.3,31.5,11.9,10.4,4.8,20.6,10,30.3,16,9.8,6.1,19.3,12.7,28.1,20.2,8.7,7.4,16.9,15.3,24.5,23.8,7.9,8.8,14.8,18.4,21.1,28.5,6.1,9.8,11,20.1,15.3,30.8,4.2,10.6,7.3,21.8,9.4,33,2.2,11.8,3.3,23.8,3.1,35.8-.3,23.7-5.1,47.4-14,69.4-6.6,16.2-14.9,31.7-25,46-6.8,7.5-13.7,15-20.8,22.4-3.2,3.4-6.5,6.7-9.8,9.9-7.7.8-15.5,1.6-23.2,2.4-8.3.9-81.7,23.2-59.9,14.2,8.2-3.4,54.9-26.1,81.6-59.6"/>
              <path class="st12" d="M679.3,753c2.3.5,4.5,1.5,6.6,2.5,5,2.1,10,4.1,14.7,6.8-3.5,3.7-6.9,7.4-10.4,11.1-3.6,3.8-7.2,7.4-11,11-8.4,7.8-17.3,15-26.5,21.8-5.6,4-11.3,7.8-17.2,11.4-1.7,1-3.4,2-5.1,3-6.5,1.1-12.9,2-19.4,2.9-10.8,1.5-21.6,2.9-32.5,4.2-.6,0-1.2.1-1.9.2-14.8.9-29.6,1.5-44.4,1.8-10.2.3-20.4.4-30.7.4-11.8,0-23.5-.2-35.2-.4-21.6-.5-43.1-1.5-64.6-3-21.1-1.4-42.2-3.5-63.2-6.1-5.1-.7-10.2-1.4-15.3-2.1-.6,0-1.2-.2-1.9-.3,0,0-.2,0-.3,0-1.2,0-2.5-.3-3.7-.6-.3,0-.6,0-.9-.1-.3,0-.6-.1-1-.2-9.8-3.4-19.5-7-29.1-10.9-1.5-1-3-1.9-4.5-2.9-11.5-7.6-22.5-15.8-33-24.6-2-1.7-3.9-3.5-5.8-5.3,4.3-3.6,10.4-5,15.7-2.8,4.7,1.9,9.6,3.6,14.5,5,16.2,4.6,32.8,7.7,49.5,10.3,1.1,0,2.3.3,3.4.5.6,0,1.2.2,1.7.3,2.4.4,4.9.7,7.3,1,4.9.7,9.8,1.3,14.8,1.9,20.8,2.5,41.7,4.3,62.7,5.6,20.9,1.3,41.9,2.1,62.9,2.5,4.3,0,8.5.1,12.8.2,21.5.2,43.1-.1,64.6-1,21.4-.9,42.7-2.4,64-4.8,15.2-1.8,30.3-4.2,45.2-7.8,2.1-.6,4.3-1.2,6.4-1.9-1.2-.7-2.4-1.5-3.5-2.4-2.4-2-4.2-4.4-5.5-7.2"/>
              <path class="st12" d="M372.9,812.8c-.9,4-5,6.6-8.9,5.7-8-1.8-15.9-4.1-23.7-6.5-20.4-5.3-39.2-15.3-56.3-27.6-15.5-11.3-30.8-23.6-41.4-39.8-5.9-9.1,3-18.3,11.2-10,13.5,20.1,33.6,34.7,53.9,47.3,12.9,7.8,27,13.1,41.5,17,5.9,1.7,11.9,3.4,18,4.8,4,.9,6.6,4.9,5.7,8.9h0Z"/>
              <path class="st12" d="M364.9,802.5c-2,7.9-9.9,5.7-15.8,4.4-20-3.7-39.7-9.5-58.1-18.4-17.2-8.6-34.3-18.7-47.2-33.2-6.9-7.7-.5-18.4,9.1-12,14.3,15.7,32.9,26.6,52.1,35.1,12.6,5.2,25.6,9.3,39,12.1,5,1,10.1,2,15.2,3,4,.7,6.6,5,5.7,8.9h0Z"/>
              <path class="st12" d="M504.7,823.6c-10.6.4-10.5-15.1,0-15.1,26.5-4,53-7.8,79.2-13.6,28.7-5.6,55.8-17.9,78.9-36,8.1-6.4,17.7,1.2,11,10-16.8,14.2-36.6,25.2-57.3,32.6-36.2,11.8-74.2,16.3-111.7,22.1h0Z"/>
              <path class="st12" d="M611.1,823.6c-7.2,1-14.5,2-21.8,2.9-2.7-3.9-1.7-10.4,4.5-11.8,11.1-2.5,21.8-6.3,32.3-10.5,24-10.7,45.8-27,61.9-47.9,7-9.2,12.3-19.6,17.3-30,2.5-4.3,3.4-9.6,6.9-13.1,8.3-7,14.7,4,10.3,11.4-5.9,13-12.1,26.1-20.5,37.7-20,27.6-48.9,48-80.8,59.8-3.4.5-6.8,1-10.2,1.5h0Z"/>
              <path class="st12" d="M604.3,824.4c-9.4,3-14.1-10.8-4.9-14.2,10.8-3.5,21.3-7.8,31.8-12,30.4-13.4,57.9-35,73.7-64.6,3.3-5.6,5.4-11.9,9-17.2,4.8-5.5,12.7-4,13,3.8-.2,6.2-4.6,11.5-6.9,17.1-6.1,11.6-13.5,22.6-22.3,32.4-24.6,27.4-58.8,43.5-93.3,54.8h0Z"/>
              <path class="st12" d="M611.1,823.6c-8.3,1.2-16.6,2.2-24.9,3.2-4.2-3.5-3.9-11.7,3.1-13.3,14.3-3,28.7-6.3,42.3-11.5,18.6-8,34.2-21.8,47.4-37,10.2-12.4,19.1-25.7,27.2-39.5,4.3-6,5.7-17.2,14.8-17.4,4.6.2,6.5,5.6,5.7,9.5-.6,3.1-2.6,5.7-3.9,8.5-18.9,34.7-43.7,68.7-79.6,87-9.1,4.3-18.7,7.3-28.5,9.8-1.2.2-2.5.4-3.7.5h0Z"/>
              <path class="st12" d="M611.1,823.6c-9.6,1.3-19.2,2.6-28.8,3.7-1.4-3.6-.3-8.1,4.4-9.8,17-5.4,34.7-9.5,50.4-18.2,25.2-15.2,46.4-36.7,62.8-61.1,3.7-5.6,7-11.5,10-17.6,1-2.2,2.2-4.3,4.3-5.7,6.4-4.5,12.3,1.2,10.9,8.1-15.9,35.9-44.5,66.2-77.3,87.4-7.7,4.8-16.1,8.4-24.6,11.4-4,.6-8,1.2-12,1.7h0Z"/>
              <path class="st12" d="M594.7,825.7h-1c-1.6,0-3.3,0-4.9,0-9.9-.8-9-15.2.8-15,16.4.7,32.8-2.2,48-8.5,39.1-17.7,65.5-56,81.4-94.7,5.7-14.7,21.3-6.8,12.4,9.3-19.1,44.8-52.8,89.2-100.8,103.8-6.5,1.1-13,2-19.5,2.9-5.5.8-10.9,1.5-16.4,2.2h0Z"/>
              <path class="st12" d="M243.2,773.6l5.6-.7s-24.2-30.2-18.7-19c5.5,11.2,13.1,19.8,13.1,19.8h0Z"/>
            </g>
          </g>
          <polygon class="st12" points="662.5 473 646.5 462.5 673.5 428.8 662.5 473"/>
          <path class="st12" d="M389.1,441s-12.2,5-11.2,2.8,1.4-7.5,1.4-7.5l9.8,4.6Z"/>
          <path class="st12" d="M242,771.6l11.5-5.5s119.1,59,69.8,52.4c-49.3-6.6-81.3-46.9-81.3-46.9h0Z"/>
        </g>
      </g>
    </g>
  </g>
</svg>